<?xml version="1.0" encoding="utf-8"?>
<!-- Generator: Adobe Illustrator 21.0.0, SVG Export Plug-In . SVG Version: 6.00 Build 0)  -->
<svg version="1.1" id="Capa_1" xmlns="http://www.w3.org/2000/svg" xmlns:xlink="http://www.w3.org/1999/xlink" x="0px" y="0px"
	 viewBox="0 0 1920 1440" style="enable-background:new 0 0 1920 1440;" xml:space="preserve">
<style type="text/css">
	.st0{opacity:0.3;}
	.st1{filter:url(#Adobe_OpacityMaskFilter);}
	.st2{fill:#FFFFFF;}
	.st3{mask:url(#mask-2_1_);fill:#EEA2C8;}
	.st4{filter:url(#Adobe_OpacityMaskFilter_1_);}
	.st5{mask:url(#mask-6_1_);fill:#9C182F;}
	.st6{fill:#C70041;}
	.st7{filter:url(#Adobe_OpacityMaskFilter_2_);}
	.st8{mask:url(#mask-8_1_);fill:#C70041;}
	.st9{filter:url(#Adobe_OpacityMaskFilter_3_);}
	.st10{mask:url(#mask-10_1_);fill:#9C182F;}
	.st11{filter:url(#Adobe_OpacityMaskFilter_4_);}
	.st12{mask:url(#mask-12_1_);fill:#C70041;}
	.st13{fill:#B7C565;}
</style>
<g id="Page-1_6_" class="st0">
	<g id="Backgrounds_x2F_Vector_x2F_Leaf01">
		<g id="Page-1">
			<g>
				<g id="Clip-2">
				</g>
				<defs>
					<filter id="Adobe_OpacityMaskFilter" filterUnits="userSpaceOnUse" x="34.1" y="201.9" width="644.6" height="615.9">
						<feColorMatrix  type="matrix" values="1 0 0 0 0  0 1 0 0 0  0 0 1 0 0  0 0 0 1 0"/>
					</filter>
				</defs>
				<mask maskUnits="userSpaceOnUse" x="34.1" y="201.9" width="644.6" height="615.9" id="mask-2_1_">
					<g class="st1">
						<polygon id="path-1_1_" class="st2" points="34.1,201.9 678.8,201.9 678.8,817.9 34.1,817.9 						"/>
					</g>
				</mask>
				<path id="Fill-1" class="st3" d="M222.7,311.6v3h6.5v-6.5h-3.8C224.5,309.3,223.5,310.5,222.7,311.6z M240.6,288.1h5.8v-6.5
					h-0.8C244,283.8,242.3,285.9,240.6,288.1z M263.8,261.5v-1.8c-0.5,0.6-1.1,1.2-1.6,1.8H263.8z M211.9,327.9v-3
					c-0.9,1-1.7,2-2.6,3H211.9z M118.9,274.8h6.5v-6.5h-6.5V274.8z M139.8,268.3h-3.6v6.5h6.5C141.8,272.5,140.9,270.4,139.8,268.3z
					 M155.7,321.4h-2.2v6.5h4.1C157,325.8,156.4,323.7,155.7,321.4z M412.9,606.7h6.5v-6.5h-6.5V606.7z M274.5,247.8v0.5h6.5v-6.5
					h-0.8C278.3,243.7,276.4,245.7,274.5,247.8z M395.6,354.5h6.5V348c-2.2,0.6-4.4,1.1-6.5,1.4V354.5z M419.4,341.2V340
					c-0.7,0.4-1.3,0.8-2,1.2H419.4z M361,646.6h6.5v-6.5H361V646.6z M412.9,593.4h6.5V587h-6.5V593.4z M412.9,580.2h6.5v-6.5h-6.5
					V580.2z M326.4,208.4h6.5V202c-2.2,1-4.3,2-6.5,3.2V208.4z M309.1,216.3v5.5h6.5v-6.5h-5.1C310.1,215.5,309.6,215.9,309.1,216.3
					z M378.3,216.4v5.4h1.6C379.4,219.9,378.9,218.1,378.3,216.4z M381.5,348h-3.2v6.5h6.5V349c-0.7-0.2-1.3-0.3-2-0.5
					C382.4,348.3,381.9,348.1,381.5,348z M153.5,312.8v1.9h0.5C153.8,314,153.6,313.4,153.5,312.8z M118.9,434.1h6.5v-6.5h-6.5
					V434.1z M118.9,447.4h6.5v-6.5h-6.5V447.4z M118.9,407.6h6.5v-6.5h-6.5V407.6z M118.9,460.7h6.5v-6.5h-6.5V460.7z M118.9,420.9
					h6.5v-6.5h-6.5V420.9z M118.9,500.5h6.5V494h-6.5V500.5z M118.9,513.8h6.5v-6.5h-6.5V513.8z M118.9,487.2h6.5v-6.5h-6.5V487.2z
					 M118.9,474h6.5v-6.5h-6.5V474z M118.9,261.5h6.5V255h-6.5V261.5z M118.9,394.3h6.5v-6.5h-6.5V394.3z M118.9,301.4h6.5v-6.5
					h-6.5V301.4z M118.9,327.9h6.5v-6.5h-6.5V327.9z M118.9,288.1h6.5v-6.5h-6.5V288.1z M118.9,314.6h6.5v-6.5h-6.5V314.6z
					 M101.6,500.5h6.5V494h-6.5V500.5z M118.9,341.2h6.5v-6.5h-6.5V341.2z M118.9,367.7h6.5v-6.5h-6.5V367.7z M118.9,354.5h6.5V348
					h-6.5V354.5z M118.9,381h6.5v-6.5h-6.5V381z M395.6,712.9h6.5v-6.5h-6.5V712.9z M395.6,633.3h6.5v-6.5h-6.5V633.3z M395.6,739.5
					h6.5V733h-6.5V739.5z M395.6,699.7h6.5v-6.5h-6.5V699.7z M395.6,752.8h6.5v-6.5h-6.5V752.8z M395.6,646.6h6.5v-6.5h-6.5V646.6z
					 M395.6,686.4h6.5v-6.5h-6.5V686.4z M395.6,659.8h6.5v-6.5h-6.5V659.8z M395.6,673.1h6.5v-6.5h-6.5V673.1z M395.6,726.2h6.5
					v-6.5h-6.5V726.2z M361,593.4h6.5V587H361V593.4z M361,620h6.5v-6.5H361V620z M361,606.7h6.5v-6.5H361V606.7z M361,633.3h6.5
					v-6.5H361V633.3z M361,580.2h6.5v-6.5H361V580.2z M395.6,766h6.5v-6.5h-6.5V766z M395.6,780.6h6.5v-6.5h-6.5V780.6z
					 M395.6,793.9h6.5v-6.5h-6.5V793.9z M361,566.4v0.5h1.7C362.1,566.7,361.5,566.6,361,566.4z M412.9,752.8h6.5v-6.5h-6.5V752.8z
					 M412.9,686.4h6.5v-6.5h-6.5V686.4z M412.9,712.9h6.5v-6.5h-6.5V712.9z M412.9,699.7h6.5v-6.5h-6.5V699.7z M412.9,726.2h6.5
					v-6.5h-6.5V726.2z M395.6,620h6.5v-6.5h-6.5V620z M412.9,633.3h6.5v-6.5h-6.5V633.3z M412.9,739.5h6.5V733h-6.5V739.5z
					 M412.9,659.8h6.5v-6.5h-6.5V659.8z M412.9,673.1h6.5v-6.5h-6.5V673.1z M412.9,646.6h6.5v-6.5h-6.5V646.6z M412.9,807.2h6.5
					v-6.5h-6.5V807.2z M395.6,593.4h6.5V587h-6.5V593.4z M412.9,620h6.5v-6.5h-6.5V620z M395.6,606.7h6.5v-6.5h-6.5V606.7z
					 M395.6,580.2h6.5v-6.5h-6.5V580.2z M412.9,793.9h6.5v-6.5h-6.5V793.9z M412.9,766h6.5v-6.5h-6.5V766z M412.9,780.6h6.5v-6.5
					h-6.5V780.6z M291.8,230.6v4.4h6.5v-6.5h-4.2C293.4,229.2,292.6,229.9,291.8,230.6z M67,285.1v3h6.5v-6.5h-3.9
					C68.8,282.7,67.9,283.9,67,285.1z M67,474h6.5v-6.5H67V474z M67,460.7h6.5v-6.5H67V460.7z M49.9,314.6h6.3v-6.5H53
					C52,310.3,50.9,312.5,49.9,314.6z M49.7,434.1h6.5v-6.5h-6.5V434.1z M67,447.4h6.5v-6.5H67V447.4z M49.7,420.9h6.5v-6.5h-6.5
					V420.9z M49.7,407.6h6.5v-6.5h-6.5V407.6z M49.7,447.4h6.5v-6.5h-6.5V447.4z M67,420.8h6.5v-6.5H67V420.8z M67,341.2h6.5v-6.5
					H67V341.2z M67,301.4h6.5v-6.5H67V301.4z M67,354.5h6.5V348H67V354.5z M67,327.9h6.5v-6.5H67V327.9z M49.7,394.3h6.5v-6.5h-6.5
					V394.3z M67,381h6.5v-6.5H67V381z M67,434.1h6.5v-6.5H67V434.1z M101.6,513.8h6.5v-6.5h-6.5V513.8z M67,394.3h6.5v-6.5H67V394.3
					z M67,367.7h6.5v-6.5H67V367.7z M67,483.1c1,1.4,2,2.8,3.1,4.2h3.4v-6.5H67V483.1z M90.8,508.5v-1.2h-1.5
					C89.8,507.7,90.3,508.1,90.8,508.5z M118.9,522.3c2.2,0.4,4.3,0.8,6.5,1v-2.7h-6.5V522.3z M53.6,460.7h2.6v-6.5h-5.7
					C51.5,456.4,52.5,458.5,53.6,460.7z M38.9,420.9L38.9,420.9l0.1-6.5h-1.6C37.9,416.5,38.3,418.7,38.9,420.9z M194.6,722.9v-3.1
					h-4.1C191.8,720.8,193.2,721.8,194.6,722.9z M177.3,708.3v-1.9h-1.9C176,707.1,176.6,707.7,177.3,708.3z M159,686.4h1.1v-6.5
					h-4.8C156.4,682.1,157.6,684.2,159,686.4z M136.2,522.8c2.3-0.4,4.4-1,6.5-1.7v-0.6h-6.5V522.8z M36.1,407.6H39v-6.5h-3.8
					C35.5,403.2,35.8,405.4,36.1,407.6z M49.7,341.2h6.5v-6.5h-6.5V341.2z M49.7,354.5h6.5V348h-6.5V354.5z M49.7,367.7h6.5v-6.5
					h-6.5V367.7z M49.7,327.9h6.5v-6.5h-6.5V327.9z M37,354.5h2V348h-0.5C37.9,350.1,37.4,352.3,37,354.5z M34.1,381H39v-6.5h-4.6
					C34.3,376.7,34.2,378.9,34.1,381z M34.5,394.3H39v-6.5h-4.8C34.3,390,34.4,392.1,34.5,394.3z M49.7,381h6.5v-6.5h-6.5V381z
					 M35,367.7h4v-6.5h-3.1C35.5,363.4,35.2,365.6,35,367.7z M67,407.6h6.5v-6.5H67V407.6z M101.6,327.9h6.5v-6.5h-6.5V327.9z
					 M101.6,341.2h6.5v-6.5h-6.5V341.2z M101.6,354.5h6.5V348h-6.5V354.5z M101.6,314.6h6.5v-6.5h-6.5V314.6z M101.6,288.1h6.5v-6.5
					h-6.5V288.1z M101.6,261.5h6.5V255h-6.5V261.5z M101.6,301.4h6.5v-6.5h-6.5V301.4z M101.6,274.8h6.5v-6.5h-6.5V274.8z
					 M101.6,367.7h6.5v-6.5h-6.5V367.7z M101.6,407.6h6.5v-6.5h-6.5V407.6z M101.6,460.7h6.5v-6.5h-6.5V460.7z M101.6,474h6.5v-6.5
					h-6.5V474z M101.6,447.4h6.5v-6.5h-6.5V447.4z M101.6,487.2h6.5v-6.5h-6.5V487.2z M101.6,381h6.5v-6.5h-6.5V381z M90.8,261.5
					v-1.3c-0.5,0.4-1.1,0.8-1.6,1.3H90.8z M101.6,394.3h6.5v-6.5h-6.5V394.3z M67,314.6h6.5v-6.5H67V314.6z M101.6,420.9h6.5v-6.5
					h-6.5V420.9z M101.6,434.1h6.5v-6.5h-6.5V434.1z M84.3,354.5h6.5V348h-6.5V354.5z M84.3,381h6.5v-6.5h-6.5V381z M84.3,367.7h6.5
					v-6.5h-6.5V367.7z M84.3,487.2h6.5v-6.5h-6.5V487.2z M84.3,341.2h6.5v-6.5h-6.5V341.2z M84.3,288.1h6.5v-6.5h-6.5V288.1z
					 M84.3,274.8h6.5v-6.5h-6.5V274.8z M84.3,314.6h6.5v-6.5h-6.5V314.6z M84.3,301.4h6.5v-6.5h-6.5V301.4z M84.3,327.9h6.5v-6.5
					h-6.5V327.9z M84.3,460.7h6.5v-6.5h-6.5V460.7z M84.3,447.4h6.5v-6.5h-6.5V447.4z M84.3,474h6.5v-6.5h-6.5V474z M84.3,500.5h6.5
					V494h-6.5V500.5z M84.3,420.9h6.5v-6.5h-6.5V420.9z M84.3,407.6h6.5v-6.5h-6.5V407.6z M84.3,434.1h6.5v-6.5h-6.5V434.1z
					 M84.3,394.3h6.5v-6.5h-6.5V394.3z M205.4,686.4h6.5v-6.5h-6.5V686.4z M239.9,540.4h6.5v-6.5h-6.5V540.4z M257.2,752.8h6.5v-6.5
					h-6.5V752.8z M239.9,496.4v4.1h6.5v-4C244.4,496.2,242.2,496.1,239.9,496.4z M257.2,686.4h6.5v-6.5h-6.5V686.4z M239.9,513.8
					h6.5v-6.5h-6.5V513.8z M257.2,699.7h6.5v-6.5h-6.5V699.7z M257.2,712.9h6.5v-6.5h-6.5V712.9z M257.2,726.2h6.5v-6.5h-6.5V726.2z
					 M257.2,739.5h6.5V733h-6.5V739.5z M239.9,527.1h6.5v-6.5h-6.5V527.1z M239.9,646.6h6.5v-6.5h-6.5V646.6z M239.9,633.3h6.5v-6.5
					h-6.5V633.3z M239.9,553.6h6.5v-6.5h-6.5V553.6z M239.9,659.8h6.5v-6.5h-6.5V659.8z M361,659.8h6.5v-6.5H361V659.8z
					 M239.9,566.9h6.5v-6.5h-6.5V566.9z M239.9,580.2h6.5v-6.5h-6.5V580.2z M239.9,673.1h6.5v-6.5h-6.5V673.1z M239.9,606.7h6.5
					v-6.5h-6.5V606.7z M239.9,593.4h6.5V587h-6.5V593.4z M257.2,673.1h6.5v-6.5h-6.5V673.1z M257.2,500.5L257.2,500.5L257.2,500.5
					C257.3,500.5,257.3,500.5,257.2,500.5z M257.2,513.8h6.5v-6.5h-6.5V513.8z M257.2,527.1h6.5v-6.5h-6.5V527.1z M274.5,752.8h6.5
					v-6.5h-6.5V752.8z M274.5,726.2h6.5v-6.5h-6.5V726.2z M274.5,739.5h6.5V733h-6.5V739.5z M257.2,540.4h6.5v-6.5h-6.5V540.4z
					 M274.5,766h6.5v-6.5h-6.5V766z M274.5,513.5v0.3h0.3C274.8,513.7,274.7,513.6,274.5,513.5z M257.2,646.6h6.5v-6.5h-6.5V646.6z
					 M257.2,633.3h6.5v-6.5h-6.5V633.3z M257.2,659.8h6.5v-6.5h-6.5V659.8z M257.2,620h6.5v-6.5h-6.5V620z M257.2,606.7h6.5v-6.5
					h-6.5V606.7z M257.2,553.6h6.5v-6.5h-6.5V553.6z M257.2,566.9h6.5v-6.5h-6.5V566.9z M257.2,580.2h6.5v-6.5h-6.5V580.2z
					 M257.2,593.4h6.5V587h-6.5V593.4z M239.9,686.4h6.5v-6.5h-6.5V686.4z M205.4,513.8h6.5v-5.4c-2.2,1.5-4.3,3.1-6.5,4.8V513.8z
					 M205.4,527.1h6.5v-6.5h-6.5V527.1z M205.4,566.9h6.5v-6.5h-6.5V566.9z M205.4,553.6h6.5v-6.5h-6.5V553.6z M205.4,540.4h6.5
					v-6.5h-6.5V540.4z M222.7,712.9h6.5v-6.5h-6.5V712.9z M222.7,699.7h6.5v-6.5h-6.5V699.7z M222.7,686.4h6.5v-6.5h-6.5V686.4z
					 M274.5,712.9h6.5v-6.5h-6.5V712.9z M222.7,726.2h6.5v-6.5h-6.5V726.2z M205.4,659.8h6.5v-6.5h-6.5V659.8z M205.4,673.1h6.5
					v-6.5h-6.5V673.1z M205.4,646.6h6.5v-6.5h-6.5V646.6z M211.9,734.7V733h-2.7C210.1,733.6,211,734.2,211.9,734.7z M205.4,633.3
					h6.5v-6.5h-6.5V633.3z M205.4,606.7h6.5v-6.5h-6.5V606.7z M205.4,593.4h6.5V587h-6.5V593.4z M205.4,620h6.5v-6.5h-6.5V620z
					 M205.4,580.2h6.5v-6.5h-6.5V580.2z M222.7,739.5h6.5V733h-6.5V739.5z M222.7,527.1h6.5v-6.5h-6.5V527.1z M229.2,500.5v-1.4
					c-1.2,0.4-2.3,0.9-3.5,1.4H229.2z M222.7,553.6h6.5v-6.5h-6.5V553.6z M222.7,540.3h6.5v-6.5h-6.5V540.3z M222.7,513.8h6.5v-6.5
					h-6.5V513.8z M239.9,712.9h6.5v-6.5h-6.5V712.9z M239.9,739.5h6.5V733h-6.5V739.5z M239.9,699.7h6.5v-6.5h-6.5V699.7z
					 M239.9,726.2h6.5v-6.5h-6.5V726.2z M222.7,566.9h6.5v-6.5h-6.5V566.9z M222.7,633.3h6.5v-6.5h-6.5V633.3z M222.7,646.6h6.5
					v-6.5h-6.5V646.6z M222.7,620h6.5v-6.5h-6.5V620z M222.7,659.8h6.5v-6.5h-6.5V659.8z M222.7,580.2h6.5v-6.5h-6.5V580.2z
					 M222.7,606.7h6.5v-6.5h-6.5V606.7z M222.7,673.1h6.5v-6.5h-6.5V673.1z M222.7,593.4h6.5V587h-6.5V593.4z M239.9,620h6.5v-6.5
					h-6.5V620z M343.7,766h6.5v-6.5h-6.5V766z M343.7,739.5h6.5V733h-6.5V739.5z M343.7,752.8h6.5v-6.5h-6.5V752.8z M343.7,780.6
					h6.5v-6.5h-6.5V780.6z M309.1,686.4h6.5v-6.5h-6.5V686.4z M343.7,686.4h6.5v-6.5h-6.5V686.4z M343.7,699.7h6.5v-6.5h-6.5V699.7z
					 M343.7,712.9h6.5v-6.5h-6.5V712.9z M343.7,726.2h6.5v-6.5h-6.5V726.2z M309.1,606.7h6.5v-6.5h-6.5V606.7z M309.1,659.8h6.5
					v-6.5h-6.5V659.8z M309.1,633.3h6.5v-6.5h-6.5V633.3z M309.1,646.6h6.5v-6.5h-6.5V646.6z M309.1,673.1h6.5v-6.5h-6.5V673.1z
					 M309.1,580.2h6.5v-6.5h-6.5V580.2z M309.1,593.4h6.5V587h-6.5V593.4z M309.1,566.9h6.5v-6.5h-6.5V566.9z M343.7,673.1h6.5v-6.5
					h-6.5V673.1z M309.1,620h6.5v-6.5h-6.5V620z M309.1,547.1v6.5h6.5v-5.2c-0.7-0.4-1.4-0.9-2.2-1.3H309.1z M361,739.5h6.5V733H361
					V739.5z M361,752.8h6.5v-6.5H361V752.8z M361,726.2h6.5v-6.5H361V726.2z M361,766h6.5v-6.5H361V766z M361,686.4h6.5v-6.5H361
					V686.4z M205.4,699.7h6.5v-6.5h-6.5V699.7z M361,712.9h6.5v-6.5H361V712.9z M361,673.1h6.5v-6.5H361V673.1z M361,699.7h6.5v-6.5
					H361V699.7z M343.7,593.4h6.5V587h-6.5V593.4z M343.7,620h6.5v-6.5h-6.5V620z M343.7,633.3h6.5v-6.5h-6.5V633.3z M361,793.9h6.5
					v-6.5H361V793.9z M343.7,646.6h6.5v-6.5h-6.5V646.6z M343.7,606.7h6.5v-6.5h-6.5V606.7z M343.7,659.8h6.5v-6.5h-6.5V659.8z
					 M343.7,566.9h6.5v-3.6c-2.2-0.7-4.4-1.5-6.5-2.2V566.9z M343.7,580.2h6.5v-6.5h-6.5V580.2z M274.5,606.7h6.5v-6.5h-6.5V606.7z
					 M274.5,540.4h6.5v-6.5h-6.5V540.4z M291.8,766h6.5v-6.5h-6.5V766z M274.5,527.1h6.5v-6.5h-6.5V527.1z M274.5,553.6h6.5v-6.5
					h-6.5V553.6z M291.8,726.2h6.5v-6.5h-6.5V726.2z M274.5,566.9h6.5v-6.5h-6.5V566.9z M291.8,712.9h6.5v-6.5h-6.5V712.9z
					 M291.8,739.5h6.5V733h-6.5V739.5z M291.8,752.8h6.5v-6.5h-6.5V752.8z M291.8,699.7h6.5v-6.5h-6.5V699.7z M274.5,646.6h6.5v-6.5
					h-6.5V646.6z M274.5,673.1h6.5v-6.5h-6.5V673.1z M274.5,659.8h6.5v-6.5h-6.5V659.8z M274.5,686.4h6.5v-6.5h-6.5V686.4z
					 M274.5,699.7h6.5v-6.5h-6.5V699.7z M274.5,593.4h6.5V587h-6.5V593.4z M274.5,580.2h6.5v-6.5h-6.5V580.2z M274.5,620h6.5v-6.5
					h-6.5V620z M274.5,633.3h6.5v-6.5h-6.5V633.3z M309.1,780.6h6.5v-6.5h-6.5V780.6z M309.1,766h6.5v-6.5h-6.5V766z M291.8,533.8
					v6.5h6.5v-3.9c-1.1-0.9-2.1-1.8-3.1-2.6H291.8z M309.1,699.7h6.5v-6.5h-6.5V699.7z M291.8,686.4h6.5v-6.5h-6.5V686.4z
					 M309.1,752.8h6.5v-6.5h-6.5V752.8z M309.1,712.9h6.5v-6.5h-6.5V712.9z M291.8,566.9h6.5v-6.5h-6.5V566.9z M309.1,726.2h6.5
					v-6.5h-6.5V726.2z M309.1,739.5h6.5V733h-6.5V739.5z M291.8,553.6h6.5v-6.5h-6.5V553.6z M291.8,646.6h6.5v-6.5h-6.5V646.6z
					 M291.8,659.8h6.5v-6.5h-6.5V659.8z M291.8,673.1h6.5v-6.5h-6.5V673.1z M291.8,633.3h6.5v-6.5h-6.5V633.3z M291.8,620h6.5v-6.5
					h-6.5V620z M291.8,593.4h6.5V587h-6.5V593.4z M291.8,580.2h6.5v-6.5h-6.5V580.2z M291.8,606.7h6.5v-6.5h-6.5V606.7z M361,780.6
					h6.5v-6.5H361V780.6z M239.9,750.8c1.3,0.7,2.6,1.4,3.9,2h2.6v-6.5h-6.5V750.8z M378.3,802.7c2.2,0.6,4.4,1.2,6.5,1.7v-3.8h-6.5
					V802.7z M568.5,633.3h1.8c1.7-0.9,3.3-1.8,4.7-2.7v-3.8h-6.5V633.3z M551.2,640.1v0.3c0.3-0.1,0.6-0.2,0.9-0.3H551.2z
					 M637.7,401.1v2.5c0.6-0.8,1.1-1.6,1.7-2.5H637.7z M516.6,646.6h4.9l1.6-0.3v-6.2h-6.5V646.6z M603.1,434.1h2.7
					c1.3-0.9,2.6-1.8,3.8-2.7v-3.8h-6.5V434.1z M447.5,653.8c2.1-0.1,4.2-0.2,6.5-0.4v-0.1h-6.5V653.8z M620.4,420.9h2.6
					c0.9-0.8,1.8-1.6,2.6-2.4c0.4-0.4,0.9-0.9,1.3-1.3v-2.8h-6.5V420.9z M585.8,613.5v1.7c0.1-0.6,0.1-1.2,0.2-1.7H585.8z
					 M585.8,447.4c2.2-1.4,4.4-2.8,6.5-4.2v-2.3h-6.5V447.4z M533.9,644.3c2.2-0.4,4.4-0.9,6.5-1.4v-2.9h-6.5V644.3z M332.9,789.1
					v-1.7h-5.1C329.5,788,331.2,788.5,332.9,789.1z M291.8,774.2c2.2,0.9,4.3,1.7,6.5,2.5v-2.6L291.8,774.2L291.8,774.2z
					 M343.7,792.6c1.4,0.4,2.8,0.9,4.1,1.3h2.4v-6.5h-6.5V792.6z M263.8,762.3v-2.8h-6C259.8,760.5,261.7,761.4,263.8,762.3z
					 M395.6,807.2C395.6,807.2,395.6,807.2,395.6,807.2l6.5,0v-6.5h-6.5V807.2z M430.2,814.6c2.3,0.4,4.4,0.8,6.5,1.1V814h-6.5
					V814.6z M447.5,817.2c2.4,0.3,4.5,0.5,6.5,0.6V814h-6.5V817.2z M470.3,814h-5.5v3.8c1-0.2,1.7-0.4,2.3-0.7
					C468.3,816.3,469.4,815.2,470.3,814z M637.7,394.3h6.1c0.1-0.2,0.3-0.4,0.4-0.6v-5.9h-6.5V394.3z M672.3,334.7v5.3
					c0.7-1.8,1.5-3.5,2.2-5.3H672.3z M655,367.7h4.1c0.8-1.6,1.6-3.1,2.5-4.7v-1.8H655V367.7z M655,374.5v0.8
					c0.2-0.3,0.3-0.5,0.5-0.8H655z M516.6,407.6h6.5v-6.5h-6.5V407.6z M464.8,580.2h6.5v-6.5h-6.5V580.2z M464.8,527.1h6.5v-6.5
					h-6.5V527.1z M464.8,540.4h6.5v-6.5h-6.5V540.4z M464.8,566.9h6.5v-6.5h-6.5V566.9z M464.8,553.6h6.5v-6.5h-6.5V553.6z
					 M482,341.2h6.5v-6.5H482V341.2z M464.8,474h6.5v-6.5h-6.5V474z M464.8,460.7h6.5v-6.5h-6.5V460.7z M464.8,500.5h6.5V494h-6.5
					V500.5z M464.8,513.8h6.5v-6.5h-6.5V513.8z M482,314.6h6.5v-6.5H482V314.6z M482,301.4h6.5v-6.5H482V301.4z M482,327.9h6.5v-6.5
					H482V327.9z M471.3,301.4v-0.1c-0.1,0.1-0.1,0.1-0.2,0.1H471.3z M464.8,593.4h6.5V587h-6.5V593.4z M464.8,620h6.5v-6.5h-6.5V620
					z M464.8,606.7h6.5v-6.5h-6.5V606.7z M464.8,646.6h6.5v-6.5h-6.5V646.6z M464.8,633.3h6.5v-6.5h-6.5V633.3z M464.8,487.2h6.5
					v-6.5h-6.5V487.2z M447.5,646.6h6.5v-6.5h-6.5V646.6z M447.5,633.3h6.5v-6.5h-6.5V633.3z M447.5,620h6.5v-6.5h-6.5V620z
					 M454,314.6L454,314.6C454,314.6,453.9,314.6,454,314.6L454,314.6z M447.5,580.2h6.5v-6.5h-6.5V580.2z M464.8,314.6h6.5v-6.5
					h-6.5V314.6z M447.5,606.7h6.5v-6.5h-6.5V606.7z M447.5,566.9h6.5v-6.5h-6.5V566.9z M447.5,593.4h6.5V587h-6.5V593.4z
					 M464.8,434.1h6.5v-6.5h-6.5V434.1z M464.8,420.9h6.5v-6.5h-6.5V420.9z M464.8,407.6h6.5v-6.5h-6.5V407.6z M464.8,327.9h6.5
					v-6.5h-6.5V327.9z M464.8,447.4h6.5v-6.5h-6.5V447.4z M464.8,394.3h6.5v-6.5h-6.5V394.3z M464.8,354.5h6.5V348h-6.5V354.5z
					 M378.3,606.7h6.5v-6.5h-6.5V606.7z M464.8,341.2h6.5v-6.5h-6.5V341.2z M464.8,367.7h6.5v-6.5h-6.5V367.7z M482,540.4h6.5v-6.5
					H482V540.4z M568.5,288.1h6.5v-6.5h-6.5V288.1z M568.5,274.8h6.5v-6.5h-6.5V274.8z M568.5,447.4h6.5v-6.5h-6.5V447.4z
					 M533.9,274.8h6.5v-2.2c-2.2,0.5-4.4,1.1-6.5,1.7V274.8z M482,606.7h6.5v-6.5H482V606.7z M482,646.6h6.5v-6.5H482V646.6z
					 M482,620h6.5v-6.5H482V620z M482,633.3h6.5v-6.5H482V633.3z M499.3,288.1h6.5v-5c-2.2,0.8-4.4,1.7-6.5,2.6V288.1z M551.2,274.8
					h6.5v-6c-2.2,0.4-4.4,0.9-6.5,1.3V274.8z M568.5,354.5h6.5V348h-6.5V354.5z M568.5,341.2h6.5v-6.5h-6.5V341.2z M568.5,327.9h6.5
					v-6.5h-6.5V327.9z M568.5,314.6h6.5v-6.5h-6.5V314.6z M568.5,394.3h6.5v-6.5h-6.5V394.3z M568.5,407.6h6.5v-6.5h-6.5V407.6z
					 M568.5,420.9h6.5v-6.5h-6.5V420.9z M205.4,712.9h6.5v-6.5h-6.5V712.9z M568.5,367.7h6.5v-6.5h-6.5V367.7z M568.5,434.1h6.5
					v-6.5h-6.5V434.1z M482,434.1h6.5v-6.5H482V434.1z M482,447.4h6.5v-6.5H482V447.4z M482,460.7h6.5v-6.5H482V460.7z M482,420.9
					h6.5v-6.5H482V420.9z M482,394.3h6.5v-6.5H482V394.3z M482,367.7h6.5v-6.5H482V367.7z M482,381h6.5v-6.5H482V381z M482,407.6
					h6.5v-6.5H482V407.6z M482,474h6.5v-6.5H482V474z M482,487.2h6.5v-6.5H482V487.2z M482,566.9h6.5v-6.5H482V566.9z M482,553.6
					h6.5v-6.5H482V553.6z M482,580.2h6.5v-6.5H482V580.2z M447.5,553.6h6.5v-6.5h-6.5V553.6z M482,500.5h6.5V494H482V500.5z
					 M482,527.1h6.5v-6.5H482V527.1z M482,593.4h6.5V587H482V593.4z M482,513.8h6.5v-6.5H482V513.8z M482,354.5h6.5V348H482V354.5z
					 M430.2,766h6.5v-6.5h-6.5V766z M430.2,752.8h6.5v-6.5h-6.5V752.8z M430.2,739.5h6.5V733h-6.5V739.5z M430.2,780.6h6.5v-6.5
					h-6.5V780.6z M430.2,726.2h6.5v-6.5h-6.5V726.2z M447.5,780.6h6.5v-6.5h-6.5V780.6z M447.5,793.9h6.5v-6.5h-6.5V793.9z
					 M430.2,793.9h6.5v-6.5h-6.5V793.9z M430.2,712.9h6.5v-6.5h-6.5V712.9z M430.2,693.2v6.5h6.5v-3.3c-0.5-1.1-1-2.2-1.4-3.2H430.2
					z M430.2,606.7h6.5v-6.5h-6.5V606.7z M430.2,593.4h6.5V587h-6.5V593.4z M430.2,807.2h6.5v-6.5h-6.5V807.2z M430.2,566.9h6.5
					v-6.5h-6.5V566.9z M430.2,580.2h6.5v-6.5h-6.5V580.2z M430.2,646.6h6.5v-6.5h-6.5V646.6z M430.4,679.9h-0.2v6.5h2.3
					C431.7,684.2,431,682,430.4,679.9z M430.2,620h6.5v-6.5h-6.5V620z M430.2,633.3h6.5v-6.5h-6.5V633.3z M378.3,739.5h6.5V733h-6.5
					V739.5z M378.3,699.7h6.5v-6.5h-6.5V699.7z M378.3,686.4h6.5v-6.5h-6.5V686.4z M378.3,673.1h6.5v-6.5h-6.5V673.1z M378.3,726.2
					h6.5v-6.5h-6.5V726.2z M447.5,766h6.5v-6.5h-6.5V766z M378.3,620h6.5v-6.5h-6.5V620z M378.3,633.3h6.5v-6.5h-6.5V633.3z
					 M378.3,646.6h6.5v-6.5h-6.5V646.6z M378.3,659.8h6.5v-6.5h-6.5V659.8z M378.3,712.9h6.5v-6.5h-6.5V712.9z M447.5,807.2h6.5
					v-6.5h-6.5V807.2z M448.6,719.7h-1.1v6.5h4.8C451,724.1,449.8,721.9,448.6,719.7z M430.2,553.6h6.5v-6.5h-6.5V553.6z
					 M447.5,752.8h6.5v-6.5h-6.5V752.8z M447.5,739.5h6.5V733h-6.5V739.5z M378.3,766h6.5v-6.5h-6.5V766z M378.3,780.6h6.5v-6.5
					h-6.5V780.6z M378.3,752.8h6.5v-6.5h-6.5V752.8z M378.3,793.9h6.5v-6.5h-6.5V793.9z M464.8,807.2h6.5v-6.5h-6.5V807.2z
					 M447.5,367.7h6.5v-6.5h-6.5V367.7z M447.5,354.5h6.5V348h-6.5V354.5z M447.5,381h6.5v-6.5h-6.5V381z M447.5,394.3h6.5v-6.5
					h-6.5V394.3z M464.8,774.1v6.5h6.5v-3.6c-0.2-1-0.4-2-0.7-3H464.8z M447.5,341.2h6.5v-6.5h-6.5V341.2z M464.8,793.9h6.5v-6.5
					h-6.5V793.9z M447.5,407.6h6.5v-6.5h-6.5V407.6z M447.5,327.9h6.5v-6.5h-6.5V327.9z M447.5,540.4h6.5v-6.5h-6.5V540.4z
					 M447.5,513.8h6.5v-6.5h-6.5V513.8z M447.5,487.2h6.5v-6.5h-6.5V487.2z M430.2,540.3h6.5v-6.5h-6.5V540.3z M447.5,527.1h6.5
					v-6.5h-6.5V527.1z M447.5,447.4h6.5v-6.5h-6.5V447.4z M447.5,420.9h6.5v-6.5h-6.5V420.9z M447.5,434.1h6.5v-6.5h-6.5V434.1z
					 M447.5,474h6.5v-6.5h-6.5V474z M447.5,460.7h6.5v-6.5h-6.5V460.7z M447.5,500.5h6.5V494h-6.5V500.5z M430.2,460.7h6.5v-6.5
					h-6.5V460.7z M430.2,447.4h6.5v-6.5h-6.5V447.4z M430.2,474h6.5v-6.5h-6.5V474z M430.2,434.1h6.5v-6.5h-6.5V434.1z M430.2,513.8
					h6.5v-6.5h-6.5V513.8z M430.2,527.1h6.5v-6.5h-6.5V527.1z M430.2,487.2h6.5v-6.5h-6.5V487.2z M430.2,420.8h6.5v-6.5h-6.5V420.8z
					 M430.2,500.5h6.5V494h-6.5V500.5z M430.2,381h6.5v-6.5h-6.5V381z M430.2,659.8L430.2,659.8c1.4-2.2,3.5-3.9,6.5-4.8v-1.7h-6.5
					V659.8z M430.2,354.5h6.5V348h-6.5V354.5z M430.2,341.2h6.5v-6.5h-6.5V341.2z M464.8,752.5v0.3h0.1
					C464.8,752.7,464.8,752.6,464.8,752.5z M430.2,394.3h6.5v-6.5h-6.5V394.3z M430.2,367.7h6.5v-6.5h-6.5V367.7z M430.2,407.6h6.5
					v-6.5h-6.5V407.6z M466.7,759.5h-1.9v6.5h3.7C467.8,763.8,467.2,761.6,466.7,759.5z M464.8,381h6.5v-6.5h-6.5V381z M585.8,354.5
					h6.5V348h-6.5V354.5z M585.8,327.9h6.5v-6.5h-6.5V327.9z M585.8,341.2h6.5v-6.5h-6.5V341.2z M585.8,367.7h6.5v-6.5h-6.5V367.7z
					 M585.8,288.1h6.5v-6.5h-6.5V288.1z M585.8,274.8h6.5v-6.5h-6.5V274.8z M585.8,381h6.5v-6.5h-6.5V381z M585.8,314.6h6.5v-6.5
					h-6.5V314.6z M533.9,474h4.1c0.8-0.4,1.6-0.8,2.4-1.2v-5.3h-6.5V474z M603.1,341.2h6.5v-6.5h-6.5V341.2z M603.1,301.4h6.5v-6.5
					h-6.5V301.4z M603.1,314.6h6.5v-6.5h-6.5V314.6z M603.1,327.9h6.5v-6.5h-6.5V327.9z M603.1,288.1h6.5v-6.5h-6.5V288.1z
					 M585.8,420.8h6.5v-6.5h-6.5V420.8z M585.8,434.1h6.5v-6.5h-6.5V434.1z M585.8,407.6h6.5v-6.5h-6.5V407.6z M603.1,274.8h6.5
					v-6.5h-6.5V274.8z M585.8,394.3h6.5v-6.5h-6.5V394.3z M585.8,301.4h6.5v-6.5h-6.5V301.4z M551.2,460.7h6.5v-6.5h-6.5V460.7z
					 M551.2,447.4h6.5v-6.5h-6.5V447.4z M551.2,434.1h6.5v-6.5h-6.5V434.1z M533.9,288.1h6.5v-6.5h-6.5V288.1z M533.9,341.2h6.5
					v-6.5h-6.5V341.2z M533.9,301.4h6.5v-6.5h-6.5V301.4z M533.9,327.9h6.5v-6.5h-6.5V327.9z M551.2,420.8h6.5v-6.5h-6.5V420.8z
					 M533.9,314.6h6.5v-6.5h-6.5V314.6z M551.2,288.1h6.5v-6.5h-6.5V288.1z M551.2,327.9h6.5v-6.5h-6.5V327.9z M551.2,314.6h6.5
					v-6.5h-6.5V314.6z M551.2,301.4h6.5v-6.5h-6.5V301.4z M551.2,341.2h6.5v-6.5h-6.5V341.2z M551.2,367.7h6.5v-6.5h-6.5V367.7z
					 M551.2,381h6.5v-6.5h-6.5V381z M551.2,394.3h6.5v-6.5h-6.5V394.3z M551.2,354.5h6.5V348h-6.5V354.5z M551.2,407.6h6.5v-6.5
					h-6.5V407.6z M672.3,301.4h6.5v-6.5h-6.5V301.4z M603.1,354.5h6.5V348h-6.5V354.5z M637.7,381h6.5v-6.5h-6.5V381z M637.7,301.4
					h6.5v-6.5h-6.5V301.4z M655,301.4h6.5v-6.5H655V301.4z M637.7,327.9h6.5v-6.5h-6.5V327.9z M637.7,354.5h6.5V348h-6.5V354.5z
					 M655,314.6h6.5v-6.5H655V314.6z M637.7,314.6h6.5v-6.5h-6.5V314.6z M637.7,341.2h6.5v-6.5h-6.5V341.2z M637.7,367.7h6.5v-6.5
					h-6.5V367.7z M533.9,354.5h6.5V348h-6.5V354.5z M672.3,314.6h6.5v-6.5h-6.5V314.6z M672.3,288.1h6.5v-6.5h-6.5V288.1z
					 M655,327.9h6.5v-6.5H655V327.9z M672.3,327.9h4.8c0.6-1.6,1.2-3.2,1.7-4.7v-1.8h-6.5V327.9z M655,341.2h6.5v-6.5H655V341.2z
					 M672.3,274.1v0.7h1.3C673.1,274.6,672.7,274.3,672.3,274.1z M655,354.5h6.5V348H655V354.5z M655,268.3v6.5h6.5v-5.2
					c-1.4-0.5-2.9-0.9-4.4-1.4H655z M655,288.1h6.5v-6.5H655V288.1z M603.1,407.6h6.5v-6.5h-6.5V407.6z M620.4,288.1h6.5v-6.5h-6.5
					V288.1z M620.4,274.8h6.5v-6.5h-6.5V274.8z M620.4,301.4h6.5v-6.5h-6.5V301.4z M620.4,314.6h6.5v-6.5h-6.5V314.6z M603.1,367.7
					h6.5v-6.5h-6.5V367.7z M603.1,420.9h6.5v-6.5h-6.5V420.9z M603.1,381h6.5v-6.5h-6.5V381z M637.7,288.1h6.5v-6.5h-6.5V288.1z
					 M603.1,394.3h6.5v-6.5h-6.5V394.3z M620.4,381h6.5v-6.5h-6.5V381z M620.4,407.6h6.5v-6.5h-6.5V407.6z M620.4,394.3h6.5v-6.5
					h-6.5V394.3z M637.7,274.8h6.5v-6.5h-6.5V274.8z M620.4,354.5h6.5V348h-6.5V354.5z M620.4,341.2h6.5v-6.5h-6.5V341.2z
					 M620.4,327.9h6.5v-6.5h-6.5V327.9z M620.4,367.7h6.5v-6.5h-6.5V367.7z M499.3,606.7h6.5v-6.5h-6.5V606.7z M516.6,593.4h6.5V587
					h-6.5V593.4z M516.6,620h6.5v-6.5h-6.5V620z M516.6,606.7h6.5v-6.5h-6.5V606.7z M516.6,633.3h6.5v-6.5h-6.5V633.3z M516.6,580.2
					h6.5v-6.5h-6.5V580.2z M500.8,507.3h-1.4v6.5h5C502.9,511.5,501.7,509.4,500.8,507.3z M516.6,533.8v6.5h6.5v-4
					c-0.9-0.8-1.6-1.7-2.4-2.5H516.6z M516.6,553.6h6.5v-6.5h-6.5V553.6z M516.6,566.9h6.5v-6.5h-6.5V566.9z M499.3,593.4h6.5V587
					h-6.5V593.4z M499.3,527.1h6.5v-6.5h-6.5V527.1z M568.5,301.4h6.5v-6.5h-6.5V301.4z M499.3,620h6.5v-6.5h-6.5V620z M499.3,633.3
					h6.5v-6.5h-6.5V633.3z M533.9,633.3h6.5v-6.5h-6.5V633.3z M499.3,553.6h6.5v-6.5h-6.5V553.6z M499.3,540.4h6.5v-6.5h-6.5V540.4z
					 M499.3,566.9h6.5v-6.5h-6.5V566.9z M499.3,580.2h6.5v-6.5h-6.5V580.2z M585.8,606.3v0.4h0.1
					C585.9,606.6,585.8,606.4,585.8,606.3z M568.5,606.7h6.5v-6.5h-6.5V606.7z M568.5,593.4h6.5V587h-6.5V593.4z M551.2,561.1v5.8
					h6.3C555.5,565,553.4,563.1,551.2,561.1z M551.2,580.2h6.5v-6.5h-6.5V580.2z M568.5,454.2v3.6c2-1.2,4.1-2.4,6.1-3.6H568.5z
					 M568.5,620h6.5v-6.5h-6.5V620z M499.3,646.6h6.5v-6.5h-6.5V646.6z M551.2,593.4h6.5V587h-6.5V593.4z M533.9,620h6.5v-6.5h-6.5
					V620z M568.5,577.8v2.3h2.1C569.9,579.4,569.2,578.6,568.5,577.8z M533.9,593.4h6.5V587h-6.5V593.4z M533.9,580.2h6.5v-6.5h-6.5
					V580.2z M551.2,606.7h6.5v-6.5h-6.5V606.7z M533.9,606.7h6.5v-6.5h-6.5V606.7z M533.9,566.9h6.5v-6.5h-6.5V566.9z M535,547.1
					h-1.1v6.5h6.5v-1.9c-1.7-1.5-3.4-2.9-5.2-4.4C535.2,547.3,535.1,547.2,535,547.1z M551.2,620h6.5v-6.5h-6.5V620z M551.2,633.3
					h6.5v-6.5h-6.5V633.3z M499.3,301.4h6.5v-6.5h-6.5V301.4z M516.6,367.7h6.5v-6.5h-6.5V367.7z M516.6,354.5h6.5V348h-6.5V354.5z
					 M516.6,341.2h6.5v-6.5h-6.5V341.2z M516.6,327.9h6.5v-6.5h-6.5V327.9z M516.6,314.6h6.5v-6.5h-6.5V314.6z M516.6,381h6.5v-6.5
					h-6.5V381z M516.6,420.9h6.5v-6.5h-6.5V420.9z M516.6,394.3h6.5v-6.5h-6.5V394.3z M516.6,434.1h6.5v-6.5h-6.5V434.1z
					 M499.3,487.2h3c1-0.7,2.2-1.2,3.5-1.6v-4.9h-6.5V487.2z M533.9,394.3h6.5v-6.5h-6.5V394.3z M533.9,420.9h6.5v-6.5h-6.5V420.9z
					 M533.9,381h6.5v-6.5h-6.5V381z M516.6,288.1h6.5v-6.5h-6.5V288.1z M516.6,301.4h6.5v-6.5h-6.5V301.4z M533.9,434.1h6.5v-6.5
					h-6.5V434.1z M533.9,460.7h6.5v-6.5h-6.5V460.7z M533.9,447.4h6.5v-6.5h-6.5V447.4z M533.9,407.6h6.5v-6.5h-6.5V407.6z
					 M499.3,407.6h6.5v-6.5h-6.5V407.6z M499.3,394.3h6.5v-6.5h-6.5V394.3z M499.3,381h6.5v-6.5h-6.5V381z M499.3,420.9h6.5v-6.5
					h-6.5V420.9z M499.3,367.7h6.5v-6.5h-6.5V367.7z M499.3,460.7h6.5v-6.5h-6.5V460.7z M499.3,434.1h6.5v-6.5h-6.5V434.1z
					 M499.3,474h6.5v-6.5h-6.5V474z M499.3,447.4h6.5v-6.5h-6.5V447.4z M499.3,341.2h6.5v-6.5h-6.5V341.2z M516.6,480.7v2.1
					c1.8-0.6,3.9-1.3,5.9-2.1H516.6z M499.3,354.5h6.5V348h-6.5V354.5z M516.6,474h6.5v-6.5h-6.5V474z M516.6,460.7h6.5v-6.5h-6.5
					V460.7z M533.9,367.7h6.5v-6.5h-6.5V367.7z M516.6,447.4h6.5v-6.5h-6.5V447.4z M499.3,327.9h6.5v-6.5h-6.5V327.9z M499.3,314.6
					h6.5v-6.5h-6.5V314.6z M568.5,381h6.5v-6.5h-6.5V381z M274.5,367.7h6.5v-6.5h-6.5V367.7z M239.9,420.9h6.5v-6.5h-6.5V420.9z
					 M274.5,354.5h6.5V348h-6.5V354.5z M274.5,327.9h6.5v-6.5h-6.5V327.9z M274.5,407.6h6.5v-6.5h-6.5V407.6z M274.5,314.6h6.5v-6.5
					h-6.5V314.6z M257.2,274.8h6.5v-6.5h-6.5V274.8z M274.5,394.3h6.5v-6.5h-6.5V394.3z M274.5,381h6.5v-6.5h-6.5V381z M274.5,261.5
					h6.5V255h-6.5V261.5z M309.1,394.3h6.5v-6.5h-6.5V394.3z M309.1,381h6.5v-6.5h-6.5V381z M309.1,367.7h6.5v-6.5h-6.5V367.7z
					 M309.1,354.5h6.5V348h-6.5V354.5z M309.1,401.1v2.4c2-0.9,3.9-1.7,5.8-2.4H309.1z M274.5,274.8h6.5v-6.5h-6.5V274.8z
					 M274.5,301.4h6.5v-6.5h-6.5V301.4z M309.1,341.2h6.5v-6.5h-6.5V341.2z M257.2,288.1h6.5v-6.5h-6.5V288.1z M274.5,288.1h6.5
					v-6.5h-6.5V288.1z M239.9,341.2h6.5v-6.5h-6.5V341.2z M239.9,327.9h6.5v-6.5h-6.5V327.9z M239.9,314.6h6.5v-6.5h-6.5V314.6z
					 M239.9,354.5h6.5V348h-6.5V354.5z M239.9,394.3h6.5v-6.5h-6.5V394.3z M239.9,407.6h6.5v-6.5h-6.5V407.6z M239.9,301.4h6.5v-6.5
					h-6.5V301.4z M239.9,367.7h6.5v-6.5h-6.5V367.7z M239.9,381h6.5v-6.5h-6.5V381z M257.2,354.5h6.5V348h-6.5V354.5z M257.2,301.4
					h6.5v-6.5h-6.5V301.4z M257.2,420.9h6.5v-6.5h-6.5V420.9z M257.2,327.9h6.5v-6.5h-6.5V327.9z M257.2,314.6h6.5v-6.5h-6.5V314.6z
					 M257.2,341.2h6.5v-6.5h-6.5V341.2z M257.2,407.6h6.5v-6.5h-6.5V407.6z M257.2,394.3h6.5v-6.5h-6.5V394.3z M257.2,367.7h6.5
					v-6.5h-6.5V367.7z M257.2,381h6.5v-6.5h-6.5V381z M274.5,341.2h6.5v-6.5h-6.5V341.2z M361,367.7h6.5v-6.5H361V367.7z M361,354.5
					h6.5V348H361V354.5z M361,381h6.5v-6.5H361V381z M361,341.2h6.5v-6.5H361V341.2z M361,392.2c2.4,0.1,4.6,0.3,6.5,0.7v-5.1H361
					V392.2z M343.7,221.7h6.5v-6.5h-6.5V221.7z M361,327.9h6.5v-6.5H361V327.9z M343.7,235h6.5v-6.5h-6.5V235z M343.7,208.4h6.5
					v-6.5h-6.5V208.4z M309.1,327.9h6.5v-6.5h-6.5V327.9z M361,221.7h6.5v-6.5H361V221.7z M361,235h6.5v-6.5H361V235z M361,208.4
					h6.5v-6.5H361V208.4z M343.7,248.3h6.5v-6.5h-6.5V248.3z M361,314.6h6.5v-6.5H361V314.6z M361,288.1h6.5v-6.5H361V288.1z
					 M361,301.4h6.5v-6.5H361V301.4z M361,261.5h6.5V255H361V261.5z M361,274.8h6.5v-6.5H361V274.8z M361,248.3h6.5v-6.5H361V248.3z
					 M309.1,261.5h6.5V255h-6.5V261.5z M309.1,235h6.5v-6.5h-6.5V235z M343.7,381h6.5v-6.5h-6.5V381z M343.7,393.1
					c2.3-0.3,4.4-0.6,6.5-0.8v-4.6h-6.5V393.1z M309.1,248.3h6.5v-6.5h-6.5V248.3z M309.1,314.6h6.5v-6.5h-6.5V314.6z M309.1,274.8
					h6.5v-6.5h-6.5V274.8z M309.1,301.4h6.5v-6.5h-6.5V301.4z M309.1,288.1h6.5v-6.5h-6.5V288.1z M343.7,261.5h6.5V255h-6.5V261.5z
					 M343.7,301.4h6.5v-6.5h-6.5V301.4z M343.7,314.6h6.5v-6.5h-6.5V314.6z M343.7,288.1h6.5v-6.5h-6.5V288.1z M343.7,274.8h6.5
					v-6.5h-6.5V274.8z M343.7,341.2h6.5v-6.5h-6.5V341.2z M343.7,327.9h6.5v-6.5h-6.5V327.9z M343.7,354.5h6.5V348h-6.5V354.5z
					 M343.7,367.7h6.5v-6.5h-6.5V367.7z M170.8,620h6.5v-6.5h-6.5V620z M170.8,686.4h6.5v-6.5h-6.5V686.4z M170.8,659.8h6.5v-6.5
					h-6.5V659.8z M170.8,673.1h6.5v-6.5h-6.5V673.1z M170.8,699.7h6.5v-6.5h-6.5V699.7z M153.5,593.4h6.5V587h-6.5V593.4z
					 M170.8,606.7h6.5v-6.5h-6.5V606.7z M170.8,646.6h6.5v-6.5h-6.5V646.6z M170.8,593.4h6.5V587h-6.5V593.4z M170.8,633.3h6.5v-6.5
					h-6.5V633.3z M384.1,268.3h-5.8v6.5h5C383.6,273,383.9,270.8,384.1,268.3z M153.5,487.2h6.5v-6.5h-6.5V487.2z M153.5,500.5h6.5
					V494h-6.5V500.5z M153.5,474h6.5v-6.5h-6.5V474z M153.5,673.1h6.5v-6.5h-6.5V673.1z M153.5,659.8h6.5v-6.5h-6.5V659.8z
					 M153.5,633.3h6.5v-6.5h-6.5V633.3z M153.5,620h6.5v-6.5h-6.5V620z M153.5,606.7h6.5v-6.5h-6.5V606.7z M153.5,646.6h6.5v-6.5
					h-6.5V646.6z M205.4,726.2h6.5v-6.5h-6.5V726.2z M188.1,593.4h6.5V587h-6.5V593.4z M170.8,580.2h6.5v-6.5h-6.5V580.2z
					 M188.1,606.7h6.5v-6.5h-6.5V606.7z M188.1,620h6.5v-6.5h-6.5V620z M188.1,566.9h6.5v-6.5h-6.5V566.9z M194.6,527.1v-4.4
					c-1.5,1.4-3,2.9-4.4,4.4H194.6z M188.1,553.6h6.5v-6.5h-6.5V553.6z M153.5,460.7h6.5v-6.5h-6.5V460.7z M188.1,540.3h6.5v-6.5
					h-6.5V540.3z M188.1,580.2h6.5v-6.5h-6.5V580.2z M188.1,633.3h6.5v-6.5h-6.5V633.3z M188.1,712.9h6.5v-6.5h-6.5V712.9z
					 M188.1,686.4h6.5v-6.5h-6.5V686.4z M170.8,566.9h6.5v-6.5h-6.5V566.9z M188.1,699.7h6.5v-6.5h-6.5V699.7z M188.1,646.6h6.5
					v-6.5h-6.5V646.6z M188.1,659.8h6.5v-6.5h-6.5V659.8z M188.1,673.1h6.5v-6.5h-6.5V673.1z M188.1,354.5h6.5V348h-6.5V354.5z
					 M222.7,327.9h6.5v-6.5h-6.5V327.9z M222.7,365.9c0.2,0,0.4,0,0.6,0c1.8,0.3,3.1,1,4.1,1.8h1.8v-6.5h-6.5V365.9z M205.4,341.2
					h6.5v-6.5h-6.5V341.2z M188.1,387.8v4.2c0.6-1.4,1.3-2.8,2.1-4.2H188.1z M222.7,354.5h6.5V348h-6.5V354.5z M188.1,381h6.5v-6.5
					h-6.5V381z M188.1,367.7h6.5v-6.5h-6.5V367.7z M239.9,434.1h6.5v-6.5h-6.5V434.1z M205.4,354.5h6.5V348h-6.5V354.5z
					 M222.7,341.2h6.5v-6.5h-6.5V341.2z M222.7,420.8h6.5v-6.5h-6.5V420.8z M222.7,447.2c0.5,0.1,1.1,0.2,1.6,0.2h3
					c0.6,0,1.2-0.1,1.9-0.2v-6.3h-6.5V447.2z M222.7,434.1h6.5v-6.5h-6.5V434.1z M239.9,444.1c2.1-0.9,4.3-1.9,6.5-3.1v-0.1h-6.5
					V444.1z M224.2,394.3h5v-6.5h-2.1C226.1,390.2,225.1,392.5,224.2,394.3z M211.9,441.3v-0.4h-0.3
					C211.7,441,211.8,441.2,211.9,441.3z M209.1,434.1h2.7v-6.5h-2.6C209,429.9,208.9,432.1,209.1,434.1z M222.7,407.6h6.5v-6.5
					h-6.5V407.6z M211.9,420.9v-3c-0.4,1-0.7,2-1,3H211.9z M153.5,381h6.5v-6.5h-6.5V381z M153.5,447.4h6.5v-6.5h-6.5V447.4z
					 M170.8,354.5h6.5V348h-6.5V354.5z M170.8,474h5.1c0.5-2.1,1-4.1,1.5-6.2v-0.3h-6.5V474z M153.5,341.2h6.5v-6.5h-6.5V341.2z
					 M153.5,354.5h6.5V348h-6.5V354.5z M153.5,434.1h6.5v-6.5h-6.5V434.1z M153.5,420.9h6.5v-6.5h-6.5V420.9z M153.5,407.6h6.5v-6.5
					h-6.5V407.6z M153.5,394.3h6.5v-6.5h-6.5V394.3z M153.5,367.7h6.5v-6.5h-6.5V367.7z M170.8,381h6.5v-6.5h-6.5V381z M170.8,394.3
					h6.5v-6.5h-6.5V394.3z M170.8,460.7h6.5v-6.5h-6.5V460.7z M170.8,407.6h6.5v-6.5h-6.5V407.6z M170.8,367.7h6.5v-6.5h-6.5V367.7z
					 M170.8,420.9h6.5v-6.5h-6.5V420.9z M170.8,447.4h6.5v-6.5h-6.5V447.4z M170.8,434.1h6.5v-6.5h-6.5V434.1z M378.3,381h6.5v-6.5
					h-6.5V381z M291.8,341.2h6.5v-6.5h-6.5V341.2z M291.8,367.7h6.5v-6.5h-6.5V367.7z M291.8,354.5h6.5V348h-6.5V354.5z
					 M153.5,513.8h1.5c1.8-1.6,3.4-3.3,5-5.2v-1.3h-6.5V513.8z M291.8,381h6.5v-6.5h-6.5V381z M291.8,407.6h6.5v-6.5h-6.5V407.6z
					 M326.4,221.7h6.5v-6.5h-6.5V221.7z M291.8,314.6h6.5v-6.5h-6.5V314.6z M291.8,394.3h6.5v-6.5h-6.5V394.3z M326.4,235h6.5v-6.5
					h-6.5V235z M205.4,367.7h5.8c0.3-0.1,0.5-0.2,0.8-0.3v-6.2h-6.5V367.7z M291.8,301.4h6.5v-6.5h-6.5V301.4z M274.5,420.9h4
					c0.8-0.6,1.7-1.1,2.5-1.7v-4.8h-6.5V420.9z M173.9,480.7h-3.2v6.5h1C172.5,485.1,173.3,482.9,173.9,480.7z M257.2,434.1h1
					c1.8-1.1,3.6-2.3,5.5-3.5v-3h-6.5V434.1z M291.8,274.8h6.5v-6.5h-6.5V274.8z M291.8,288.1h6.5v-6.5h-6.5V288.1z M291.8,248.3
					h6.5v-6.5h-6.5V248.3z M291.8,261.5h6.5V255h-6.5V261.5z M291.8,327.9h6.5v-6.5h-6.5V327.9z M412.9,367.7h6.5v-6.5h-6.5V367.7z
					 M381.4,281.6h-3.1v6.5h0.9C380,285.8,380.7,283.6,381.4,281.6z M412.9,354.5h6.5V348h-6.5V354.5z M326.4,394.3h6.5v-6.5h-6.5
					V394.3z M326.4,381h6.5v-6.5h-6.5V381z M412.9,381h6.5v-6.5h-6.5V381z M412.9,407.6h6.5v-6.5h-6.5V407.6z M412.9,420.9h6.5v-6.5
					h-6.5V420.9z M412.9,394.3h6.5v-6.5h-6.5V394.3z M326.4,261.5h6.5V255h-6.5V261.5z M326.4,288.1h6.5v-6.5h-6.5V288.1z
					 M326.4,274.8h6.5v-6.5h-6.5V274.8z M326.4,248.3h6.5v-6.5h-6.5V248.3z M326.4,301.4h6.5v-6.5h-6.5V301.4z M326.4,314.6h6.5
					v-6.5h-6.5V314.6z M326.4,367.7h6.5v-6.5h-6.5V367.7z M326.4,354.5h6.5V348h-6.5V354.5z M326.4,341.2h6.5v-6.5h-6.5V341.2z
					 M412.9,434.1h6.5v-6.5h-6.5V434.1z M326.4,327.9h6.5v-6.5h-6.5V327.9z M326.4,646.6h6.5v-6.5h-6.5V646.6z M326.4,633.3h6.5
					v-6.5h-6.5V633.3z M326.4,659.8h6.5v-6.5h-6.5V659.8z M326.4,673.1h6.5v-6.5h-6.5V673.1z M326.4,620h6.5v-6.5h-6.5V620z
					 M326.4,580.2h6.5v-6.5h-6.5V580.2z M326.4,606.7h6.5v-6.5h-6.5V606.7z M326.4,566.9h6.5v-6.5h-6.5V566.9z M326.4,593.4h6.5V587
					h-6.5V593.4z M326.4,726.2h6.5v-6.5h-6.5V726.2z M326.4,752.8h6.5v-6.5h-6.5V752.8z M326.4,780.6h6.5v-6.5h-6.5V780.6z
					 M326.4,766h6.5v-6.5h-6.5V766z M378.3,580.2h6.5v-6.5h-6.5V580.2z M170.8,551.6v2.1h6.5v-6.5h-3.5
					C172.8,548.6,171.8,550.1,170.8,551.6z M326.4,739.5h6.5V733h-6.5V739.5z M326.4,712.9h6.5v-6.5h-6.5V712.9z M326.4,699.7h6.5
					v-6.5h-6.5V699.7z M326.4,686.4h6.5v-6.5h-6.5V686.4z M136.2,327.9h6.5v-6.5h-6.5V327.9z M136.2,420.9h6.5v-6.5h-6.5V420.9z
					 M136.2,434.1h6.5v-6.5h-6.5V434.1z M136.2,447.4h6.5v-6.5h-6.5V447.4z M136.2,407.6h6.5v-6.5h-6.5V407.6z M136.2,394.3h6.5
					v-6.5h-6.5V394.3z M136.2,500.5h6.5V494h-6.5V500.5z M136.2,487.2h6.5v-6.5h-6.5V487.2z M136.2,460.7h6.5v-6.5h-6.5V460.7z
					 M136.2,474h6.5v-6.5h-6.5V474z M136.2,354.5h6.5V348h-6.5V354.5z M136.2,314.6h6.5v-6.5h-6.5V314.6z M136.2,288.1h6.5v-6.5
					h-6.5V288.1z M136.2,301.4h6.5v-6.5h-6.5V301.4z M136.2,381h6.5v-6.5h-6.5V381z M136.2,513.8h6.5v-6.5h-6.5V513.8z M136.2,367.7
					h6.5v-6.5h-6.5V367.7z M155.8,580.2h4.3v-6.5h-1.5C157.6,575.8,156.6,578,155.8,580.2z M136.2,341.2h6.5v-6.5h-6.5V341.2z
					 M395.6,527.1h6.5v-6.5h-6.5V527.1z M343.7,474h6.5v-6.5h-6.5V474z M343.7,447.4h6.5v-6.5h-6.5V447.4z M343.7,460.7h6.5v-6.5
					h-6.5V460.7z M343.7,500.5h6.5V494h-6.5V500.5z M326.4,474h6.5v-6.5h-6.5V474z M326.4,434.1h6.5v-2.9c-2.3,0.6-4.4,1.3-6.5,2
					V434.1z M326.4,487.2h6.5v-6.5h-6.5V487.2z M326.4,513.8h6.5v-6.5h-6.5V513.8z M326.4,500.5h6.5V494h-6.5V500.5z M343.7,487.2
					h6.5v-6.5h-6.5V487.2z M361,487.2h6.5v-6.5H361V487.2z M361,460.7h6.5v-6.5H361V460.7z M361,474h6.5v-6.5H361V474z M361,500.5
					h6.5V494H361V500.5z M343.7,513.8h6.5v-6.5h-6.5V513.8z M343.7,527.1h6.5v-6.5h-6.5V527.1z M343.7,428.5v5.6h6.5v-6.5h-3.3
					C345.9,427.9,344.8,428.2,343.7,428.5z M361,434.1h6.5v-6.5H361V434.1z M361,447.4h6.5v-6.5H361V447.4z M383.5,241.8h-5.2v6.5
					h5.7C383.9,246.1,383.7,244,383.5,241.8z M309.1,508.3c2.1,1.7,4.2,3.4,6.5,5.2v-6.2h-6.5V508.3z M326.4,521.1
					c2.1,1.4,4.3,2.7,6.5,4.1v-4.6h-6.5V521.1z M298.3,498.5V494h-4.2C295.4,495.5,296.8,497,298.3,498.5z M291.8,487.2h6.5v-6.5
					h-6.5V487.2z M350.2,534.3v-0.4h-0.9C349.6,534,349.9,534.1,350.2,534.3z M381.4,228.5h-3.2v6.5h4.3
					C382.2,232.8,381.9,230.6,381.4,228.5z M361,527.1h6.5v-6.5H361V527.1z M378.3,367.7h6.5v-6.5h-6.5V367.7z M361,538.7
					c1.6,0.6,3.1,1.1,4.7,1.6h1.8v-6.5H361V538.7z M309.1,460.7h6.5v-6.5h-6.5V460.7z M309.1,441v6.4h6.5v-6.5h-6.3L309.1,441z
					 M309.1,487.2h6.5v-6.5h-6.5V487.2z M309.1,500.5h6.5V494h-6.5V500.5z M326.4,447.4h6.5v-6.5h-6.5V447.4z M291.8,455.6v5.1h6.5
					v-6.5H293C292.6,454.6,292.2,455.1,291.8,455.6z M291.8,474h6.5v-6.5h-6.5V474z M326.4,460.7h6.5v-6.5h-6.5V460.7z M309.1,474
					h6.5v-6.5h-6.5V474z M395.6,367.7h6.5v-6.5h-6.5V367.7z M395.6,420.9h6.5v-6.5h-6.5V420.9z M395.6,434.1h6.5v-6.5h-6.5V434.1z
					 M395.6,407.6h6.5v-6.5h-6.5V407.6z M395.6,394.3h6.5v-6.5h-6.5V394.3z M395.6,474h6.5v-6.5h-6.5V474z M395.6,500.5h6.5V494
					h-6.5V500.5z M395.6,447.4h6.5v-6.5h-6.5V447.4z M395.6,487.2h6.5v-6.5h-6.5V487.2z M395.6,460.7h6.5v-6.5h-6.5V460.7z
					 M395.6,381h6.5v-6.5h-6.5V381z M412.9,474h6.5v-6.5h-6.5V474z M412.9,487.2h6.5v-6.5h-6.5V487.2z M412.9,500.5h6.5V494h-6.5
					V500.5z M412.9,460.7h6.5v-6.5h-6.5V460.7z M412.9,552.1c1.1,0.5,2.1,1,3,1.6h3.5v-6.5h-6.5V552.1z M412.9,447.4h6.5v-6.5h-6.5
					V447.4z M412.9,540.4h6.5v-6.5h-6.5V540.4z M361,513.8h6.5v-6.5H361V513.8z M412.9,513.8h6.5v-6.5h-6.5V513.8z M412.9,527.1h6.5
					v-6.5h-6.5V527.1z M378.3,460.7h6.5v-6.5h-6.5V460.7z M378.3,474h6.5v-6.5h-6.5V474z M378.3,513.8h6.5v-6.5h-6.5V513.8z
					 M378.3,500.5h6.5V494h-6.5V500.5z M378.3,487.2h6.5v-6.5h-6.5V487.2z M367.5,420.9v-1.1c-0.6,0.3-1.3,0.7-2,1.1H367.5z
					 M378.3,420.9h6.5v-6.5h-6.5V420.9z M378.3,447.4h6.5v-6.5h-6.5V447.4z M378.3,434.1h6.5v-6.5h-6.5V434.1z M395.6,547.5
					c2.3,0.5,4.5,0.9,6.5,1.4v-1.8h-6.5V547.5z M395.6,540.4h6.5v-6.5h-6.5V540.4z M378.3,394.3h6.5v-6.5h-6.5V394.3z M378.3,540.4
					h6.5v-6.5h-6.5V540.4z M384.4,255h-6.1v6.5h6.1C384.4,259.5,384.4,257.3,384.4,255z M395.6,513.8h6.5v-6.5h-6.5V513.8z
					 M378.3,527.1h6.5v-6.5h-6.5V527.1z M378.3,593.4h6.5V587h-6.5V593.4z M379.6,407.6h5.2v-6.5h-5.4
					C380.1,403,380.2,405.2,379.6,407.6z"/>
			</g>
		</g>
		<g id="Backgrounds_x2F_Vector_x2F_Leaf02" transform="translate(1144.000000, 119.000000)">
			<g id="Page-1_2_">
				<g id="Clip-2_2_">
				</g>
				<defs>
					<filter id="Adobe_OpacityMaskFilter_1_" filterUnits="userSpaceOnUse" x="-268" y="170.5" width="716" height="387.1">
						<feColorMatrix  type="matrix" values="1 0 0 0 0  0 1 0 0 0  0 0 1 0 0  0 0 0 1 0"/>
					</filter>
				</defs>
				<mask maskUnits="userSpaceOnUse" x="-268" y="170.5" width="716" height="387.1" id="mask-6_1_">
					<g class="st4">
						<polygon id="path-5_1_" class="st2" points="-268,170.5 448,170.5 448,557.6 -268,557.6 						"/>
					</g>
				</mask>
				<path id="Fill-1_2_" class="st5" d="M434,305.6c-2.7,2.7-2.7,7.1,0,9.7c2.7,2.7,7.1,2.7,9.8,0c2.7-2.7,2.7-7.1,0-9.8
					C441.1,302.9,436.7,302.9,434,305.6 M372.3,386.7c2.7-2.7,2.7-7.1,0-9.8c-2.7-2.7-7.1-2.7-9.8,0c-2.7,2.7-2.7,7.1,0,9.8
					C365.3,389.4,369.6,389.4,372.3,386.7 M411.8,247.7c-2.7,2.7-2.7,7.1,0,9.8c2.7,2.7,7.1,2.7,9.8,0c2.7-2.7,2.7-7.1,0-9.8
					C418.9,245,414.5,245,411.8,247.7 M414,285.6c-2.7,2.7-2.7,7,0,9.7c2.7,2.7,7.1,2.7,9.8,0c2.7-2.7,2.7-7.1,0-9.7
					C421,282.8,416.7,282.9,414,285.6 M418.4,361.3c-2.7,2.7-2.7,7.1,0,9.7c2.7,2.7,7.1,2.7,9.7,0c2.7-2.7,2.7-7.1,0-9.8
					C425.4,358.6,421.1,358.6,418.4,361.3 M416.2,323.4c-2.7,2.7-2.7,7.1,0,9.7c2.7,2.7,7.1,2.7,9.8,0c2.7-2.7,2.7-7.1,0-9.7
					C423.2,320.7,418.9,320.7,416.2,323.4 M396.1,303.4c-2.7,2.7-2.7,7,0,9.7c2.7,2.7,7.1,2.7,9.8,0c2.7-2.7,2.7-7.1,0-9.8
					C403.2,300.7,398.8,300.7,396.1,303.4 M376.7,462.5c2.7-2.7,2.7-7.1,0-9.8c-2.7-2.7-7.1-2.7-9.8,0c-2.7,2.7-2.7,7,0,9.7
					C369.6,465.1,374,465.1,376.7,462.5 M430.3,408.9c2.7-2.7,2.7-7.1,0-9.8c-2.7-2.7-7.1-2.7-9.8,0c-2.7,2.7-2.7,7.1,0,9.8
					C423.3,411.6,427.6,411.6,430.3,408.9 M374.5,424.6c2.7-2.7,2.7-7.1,0-9.8c-2.7-2.7-7.1-2.7-9.8,0c-2.7,2.7-2.7,7.1,0,9.7
					C367.5,427.3,371.8,427.3,374.5,424.6 M393.9,265.5c-2.7,2.7-2.7,7.1,0,9.7c2.7,2.7,7.1,2.7,9.8,0c2.7-2.7,2.7-7.1,0-9.7
					C401,262.8,396.6,262.8,393.9,265.5 M390.2,368.8c2.7-2.7,2.7-7.1,0-9.8c-2.7-2.7-7.1-2.7-9.8,0c-2.7,2.7-2.7,7,0,9.7
					C383.1,371.5,387.5,371.5,390.2,368.8 M398.3,341.3c-2.7,2.7-2.7,7,0,9.7c2.7,2.7,7.1,2.7,9.8,0c2.7-2.7,2.7-7.1,0-9.8
					C405.4,338.6,401,338.6,398.3,341.3 M400.5,379.1c-2.7,2.7-2.7,7.1,0,9.7c2.7,2.7,7.1,2.7,9.8,0c2.7-2.7,2.7-7.1,0-9.8
					C407.6,376.4,403.2,376.4,400.5,379.1 M412.5,426.8c2.7-2.7,2.7-7.1,0-9.7c-2.7-2.7-7.1-2.7-9.8,0c-2.7,2.7-2.7,7.1,0,9.8
					C405.4,429.4,409.8,429.4,412.5,426.8 M369.2,490.6c-2.6,2.5-2.6,6.5-0.3,9.2c3.3-3,6.5-6.2,9.8-9.5
					C375.8,488,371.7,488,369.2,490.6 M403.1,461c1.9-2.6,3.8-5.3,5.6-7.9c-1.4,0.2-2.7,0.7-3.8,1.8
					C403.2,456.6,402.7,458.8,403.1,461 M439.3,391.6c1.3-4.1,2.5-8.2,3.5-12.2c-1.6,0.1-3.2,0.7-4.4,1.9c-2.7,2.7-2.7,7,0,9.7
					C438.7,391.3,439,391.4,439.3,391.6 M387,472.7c-2.4,2.4-2.6,6.3-0.5,9c2.9-3.3,5.7-6.6,8.5-10.1
					C392.4,470.2,389.2,470.6,387,472.7 M394.6,444.6c2.7-2.7,2.7-7.1,0-9.8c-2.7-2.7-7.1-2.7-9.8,0c-2.7,2.7-2.7,7,0,9.7
					C387.5,447.3,391.9,447.3,394.6,444.6 M436.2,343.5c-2.7,2.7-2.7,7.1,0,9.8c2.7,2.7,7.1,2.7,9.8,0c1.3-1.3,2-3.1,2-4.8v-0.2
					c0-1.7-0.7-3.5-2-4.8C443.3,340.8,438.9,340.8,436.2,343.5 M392.4,406.7c2.7-2.7,2.7-7.1,0-9.7c-2.7-2.7-7.1-2.7-9.8,0
					c-2.7,2.7-2.7,7.1,0,9.7C385.3,409.4,389.7,409.4,392.4,406.7 M285.2,380c0.3,0.8,0.8,1.6,1.5,2.3c2.7,2.7,7.1,2.7,9.8,0
					c2.7-2.7,2.7-7.1,0-9.8c-1.2-1.2-2.8-1.8-4.4-1.9C290,373.9,287.7,377,285.2,380 M141.6,477.4c-2.7,2.7-2.7,7.1,0,9.8
					c2.7,2.7,7.1,2.7,9.8,0c2.7-2.7,2.7-7.1,0-9.8C148.6,474.7,144.3,474.7,141.6,477.4 M149.1,449.3c2.7-2.7,2.7-7.1,0-9.7
					c-2.7-2.7-7.1-2.7-9.8,0c-2.7,2.7-2.7,7,0,9.7C142.1,452,146.4,452,149.1,449.3 M99.2,409.2c2.7,2.7,7.1,2.7,9.8,0
					c0.2-0.2,0.3-0.5,0.5-0.7c-4.1-1.3-8.2-2.7-12.3-4.2C97.2,406,97.9,407.8,99.2,409.2 M123.7,495.3c-2.7,2.7-2.7,7,0,9.7
					c2.7,2.7,7.1,2.7,9.8,0c2.7-2.7,2.7-7.1,0-9.7C130.8,492.6,126.4,492.6,123.7,495.3 M135.6,533.1c-2.7-2.7-7.1-2.7-9.8,0
					c-2.7,2.7-2.7,7.1,0,9.7c2.7,2.7,7.1,2.7,9.7,0C138.4,540.2,138.3,535.8,135.6,533.1 M-54.3,488.5c-0.2-1.5-0.7-3-1.9-4.2
					c-2.7-2.7-7.1-2.7-9.8,0c-0.2,0.2-0.2,0.4-0.4,0.6c1.6,0.5,3.2,0.9,4.9,1.4C-59.1,486.9-56.7,487.7-54.3,488.5 M-225.8,503.1
					c2.7-2.7,2.7-7.1,0-9.8c-2.7-2.7-7.1-2.7-9.8,0c-2.7,2.7-2.7,7.1,0,9.7C-232.9,505.8-228.5,505.8-225.8,503.1 M-210.1,447.4
					c2.7-2.7,2.7-7.1,0-9.8c-2.7-2.7-7.1-2.7-9.8,0c-2.7,2.7-2.7,7.1,0,9.8C-217.2,450.1-212.8,450.1-210.1,447.4 M121.5,457.4
					c-2.7,2.7-2.7,7.1,0,9.7c2.7,2.7,7.1,2.7,9.8,0c2.7-2.7,2.7-7.1,0-9.8C128.6,454.7,124.2,454.7,121.5,457.4 M358.9,470.5
					c-2.7-2.7-7.1-2.7-9.8,0c-2.7,2.7-2.7,7.1,0,9.7c2.7,2.7,7.1,2.7,9.8,0C361.5,477.6,361.5,473.2,358.9,470.5 M-207.9,485.3
					c2.7-2.7,2.7-7.1,0-9.7c-2.7-2.7-7.1-2.7-9.8,0c-2.7,2.7-2.7,7,0,9.7C-215,487.9-210.6,487.9-207.9,485.3 M354.5,404.5
					c2.7-2.7,2.7-7.1,0-9.8c-2.7-2.7-7.1-2.7-9.8,0c-2.7,2.7-2.7,7,0,9.7C347.4,407.2,351.8,407.2,354.5,404.5 M308.4,315.1
					c-0.2,4.5-0.7,9.1-1.3,13.5c1.8,0,3.7-0.6,5.1-2c2.7-2.7,2.7-7.1,0-9.7C311.1,315.8,309.8,315.3,308.4,315.1 M-228,465.2
					c2.7-2.7,2.7-7.1,0-9.7c-2.7-2.7-7.1-2.7-9.8,0c-2.7,2.7-2.7,7.1,0,9.7C-235,467.9-230.7,467.9-228,465.2 M119.3,419.5
					c-2.7,2.7-2.7,7.1,0,9.8c2.7,2.7,7.1,2.7,9.8,0c2.7-2.7,2.7-7,0-9.8C126.4,416.8,122,416.8,119.3,419.5 M360.4,339.1
					c-2.7,2.7-2.7,7,0,9.7c2.7,2.7,7.1,2.7,9.8,0c2.7-2.7,2.7-7.1,0-9.8C367.4,336.4,363.1,336.4,360.4,339.1 M101.4,437.3
					c-2.7,2.7-2.7,7.1,0,9.8c2.7,2.7,7.1,2.7,9.8,0c2.7-2.7,2.7-7.1,0-9.8C108.5,434.6,104.1,434.6,101.4,437.3 M251,418
					c2.7,2.7,7.1,2.7,9.8,0c2.7-2.7,2.7-7.1,0-9.7c-2.7-2.7-7.1-2.7-9.8,0C248.3,410.9,248.3,415.3,251,418 M105.8,513.1
					c-2.7,2.7-2.7,7.1,0,9.7c2.7,2.7,7.1,2.7,9.8,0c2.7-2.7,2.7-7.1,0-9.8C112.9,510.4,108.5,510.4,105.8,513.1 M103.6,475.2
					c-2.7,2.7-2.7,7.1,0,9.7c2.7,2.7,7.1,2.7,9.8,0c2.7-2.7,2.7-7.1,0-9.8C110.7,472.5,106.3,472.5,103.6,475.2 M356.7,442.4
					c2.7-2.7,2.7-7.1,0-9.8c-2.7-2.7-7.1-2.7-9.8,0c-2.7,2.7-2.7,7.1,0,9.8C349.6,445.1,354,445.1,356.7,442.4 M295.8,203.2
					c-2.7,2.7-2.7,7.1,0,9.7c2.7,2.7,7.1,2.7,9.7,0c2.7-2.7,2.7-7.1,0-9.7C302.9,200.5,298.5,200.5,295.8,203.2 M299.2,240.3
					c1.1,4.1,2.1,8.2,3.1,12.5c1.9,0.2,3.9-0.4,5.4-1.9c2.7-2.7,2.7-7.1,0-9.8C305.4,238.8,301.9,238.6,299.2,240.3 M262.9,455.9
					c2.7-2.7,2.7-7.1,0-9.7c-2.7-2.7-7.1-2.7-9.8,0c-2.7,2.7-2.7,7.1,0,9.8C255.8,458.5,260.2,458.5,262.9,455.9 M54.3,526.9
					c1.7,0.6,3.5,1.2,5.3,1.7C58.1,527.2,56.2,526.7,54.3,526.9 M85.8,493.1c-2.7,2.7-2.7,7.1,0,9.7c2.7,2.7,7.1,2.7,9.8,0
					c2.7-2.7,2.7-7.1,0-9.8C92.8,490.4,88.5,490.4,85.8,493.1 M161.6,497.4c-2.7,2.7-2.7,7.1,0,9.8c2.7,2.7,7.1,2.7,9.8,0
					c2.7-2.7,2.7-7.1,0-9.8C168.7,494.8,164.3,494.8,161.6,497.4 M-245.9,483.1c2.7-2.7,2.7-7.1,0-9.8c-0.8-0.8-1.7-1.2-2.6-1.6
					c-1.8,4.3-3.5,8.6-5,12.8C-250.9,485.6-247.9,485.1-245.9,483.1 M-6.4,505.5c3.2,1.2,6.5,2.3,9.7,3.5c-0.3-0.9-0.8-1.7-1.6-2.5
					C-0.4,504.3-3.7,504-6.4,505.5 M255.4,484c-2.7,2.7-2.7,7,0,9.7c2.7,2.7,7.1,2.7,9.8,0c2.7-2.7,2.7-7.1,0-9.7
					C262.4,481.3,258.1,481.3,255.4,484 M-197.6,495.5c-0.6,0.7-1.1,1.4-1.4,2.2c2.7-1.3,5.5-2.6,8.3-3.8
					C-193.1,493.2-195.7,493.7-197.6,495.5 M161.3,419.8c-1.5,0.2-2.9,0.7-4.1,1.9c-2.7,2.7-2.7,7.1,0,9.7c2.7,2.7,7.1,2.7,9.8,0
					c2.7-2.7,2.7-7.1,0-9.7c-0.9-0.9-1.9-1.3-3-1.6C163.1,420,162.2,419.9,161.3,419.8 M159.4,459.6c-2.7,2.7-2.7,7.1,0,9.8
					c2.7,2.7,7.1,2.7,9.8,0c2.7-2.7,2.7-7.1,0-9.8C166.5,456.9,162.1,456.9,159.4,459.6 M97.7,530.9c-2.7-2.7-7.1-2.7-9.8,0
					c-1.6,1.6-2.1,3.8-1.8,5.8c4,1.1,8,2.3,11.9,3.4C100.3,537.4,100.3,533.4,97.7,530.9 M153.5,515.3c-2.7-2.7-7.1-2.7-9.8,0
					c-2.7,2.7-2.7,7.1,0,9.7c2.7,2.7,7.1,2.7,9.8,0C156.2,522.3,156.2,518,153.5,515.3 M-170,477.7c-2.7-2.7-7.1-2.7-9.8,0
					c-2.7,2.7-2.7,7.1,0,9.8c0.6,0.6,1.3,1,2,1.3c2.9-1,5.8-2,8.7-2.9C-167.5,483.3-167.7,479.9-170,477.7 M-190.1,457.7
					c-2.7-2.7-7.1-2.7-9.8,0c-2.7,2.7-2.7,7.1,0,9.8c2.7,2.7,7.1,2.7,9.8,0C-187.4,464.7-187.4,460.4-190.1,457.7 M-80.7,398.2
					c2.7-2.7,2.7-7.1,0-9.7c-2.7-2.7-7.1-2.7-9.8,0c-2.7,2.7-2.7,7.1,0,9.7C-87.7,400.9-83.4,400.9-80.7,398.2 M-98.5,416.1
					c2.7-2.7,2.7-7.1,0-9.8c-2.7-2.7-7.1-2.7-9.8,0c-2.7,2.7-2.7,7.1,0,9.7C-105.6,418.8-101.2,418.8-98.5,416.1 M-76.3,474
					c2.7-2.7,2.7-7.1,0-9.7c-2.7-2.7-7.1-2.7-9.8,0c-2.7,2.7-2.7,7.1,0,9.7C-83.3,476.7-78.9,476.7-76.3,474 M-82.9,360.4
					c1.6-1.6,2.1-3.8,1.8-5.9c-4.6,0-9.1,0.1-13.5,0.4c-0.2,2,0.4,4,1.9,5.5C-89.9,363.1-85.5,363-82.9,360.4 M-78.5,436.1
					c2.7-2.7,2.7-7.1,0-9.8c-2.7-2.7-7-2.7-9.8,0c-2.7,2.7-2.7,7.1,0,9.7C-85.5,438.8-81.2,438.8-78.5,436.1 M-58.4,456.2
					c2.7-2.7,2.7-7.1,0-9.8c-2.7-2.7-7.1-2.7-9.8,0c-2.7,2.7-2.7,7,0,9.7C-65.5,458.8-61.1,458.8-58.4,456.2 M-192.3,429.5
					c2.7-2.7,2.7-7.1,0-9.8c-2.7-2.7-7-2.7-9.8,0c-2.7,2.7-2.7,7.1,0,9.8C-199.3,432.2-194.9,432.2-192.3,429.5 M-62.8,380.4
					c2.7-2.7,2.7-7.1,0-9.8c-2.7-2.7-7.1-2.7-9.8,0c-2.7,2.7-2.7,7.1,0,9.8C-69.9,383.1-65.5,383.1-62.8,380.4 M-60.6,418.3
					c2.7-2.7,2.7-7,0-9.8c-2.7-2.7-7.1-2.7-9.8,0c-2.7,2.7-2.7,7.1,0,9.8C-67.7,421-63.3,421-60.6,418.3 M-96.3,454
					c2.7-2.7,2.7-7.1,0-9.7c-2.7-2.7-7.1-2.7-9.8,0c-2.7,2.7-2.7,7.1,0,9.8C-103.4,456.6-99,456.6-96.3,454 M227.2,491.6
					c2.7-2.7,2.7-7.1,0-9.8c-2.7-2.7-7.1-2.7-9.8,0c-2.7,2.7-2.7,7,0,9.8C220.1,494.2,224.5,494.2,227.2,491.6 M229.4,519.7
					c-2.7-2.7-7.1-2.7-9.8,0c-2.7,2.7-2.7,7.1,0,9.7c2.7,2.7,7.1,2.7,9.8,0C232.1,526.7,232.1,522.4,229.4,519.7 M211.5,537.5
					c-2.7-2.7-7.1-2.7-9.8,0c-2.7,2.7-2.7,7,0,9.7c2.7,2.7,7.1,2.7,9.8,0C214.2,544.6,214.2,540.2,211.5,537.5 M215.2,443.9
					c-2.7,2.7-2.7,7.1,0,9.8c2.7,2.7,7.1,2.7,9.8,0c2.7-2.7,2.7-7.1,0-9.8C222.3,441.2,217.9,441.2,215.2,443.9 M233.1,426.1
					c-2.7,2.7-2.7,7.1,0,9.8c2.7,2.7,7.1,2.7,9.8,0c2.7-2.7,2.7-7.1,0-9.8C240.2,423.4,235.8,423.4,233.1,426.1 M193.7,555.4
					c-2.7-2.7-7.1-2.7-9.8,0c-0.3,0.3-0.4,0.6-0.6,1c3.9,0.3,7.7,0.6,11.6,0.9C194.5,556.5,194.2,555.9,193.7,555.4 M249.5,539.7
					c-2.7-2.7-7.1-2.7-9.8,0c-2.7,2.7-2.7,7.1,0,9.8c2.7,2.7,7.1,2.7,9.8,0C252.2,546.8,252.1,542.4,249.5,539.7 M237.5,501.8
					c-2.7,2.7-2.7,7,0,9.7c2.7,2.7,7.1,2.7,9.8,0c2.7-2.7,2.7-7.1,0-9.7C244.6,499.1,240.2,499.1,237.5,501.8 M235.3,464
					c-2.7,2.7-2.7,7.1,0,9.7c2.7,2.7,7.1,2.7,9.8,0c2.7-2.7,2.7-7.1,0-9.7C242.4,461.3,238,461.3,235.3,464 M-261.5,529
					c-1.1-1.1-2.5-1.6-4-1.9c-1,5-1.9,9.5-2.5,13.3c2.3,0.6,4.7,0.1,6.5-1.7C-258.8,536.1-258.8,531.7-261.5,529 M181.7,517.5
					c-2.7,2.7-2.7,7.1,0,9.8c2.7,2.7,7.1,2.7,9.8,0c2.7-2.7,2.7-7,0-9.8C188.8,514.8,184.4,514.8,181.7,517.5 M195.2,423.9
					c-2.7,2.7-2.7,7.1,0,9.8c2.7,2.7,7.1,2.7,9.8,0c2.7-2.7,2.7-7.1,0-9.8C202.2,421.2,197.9,421.2,195.2,423.9 M177.3,441.7
					c-2.7,2.7-2.7,7.1,0,9.8c2.7,2.7,7.1,2.7,9.8,0c2.7-2.7,2.7-7.1,0-9.8C184.4,439,180,439,177.3,441.7 M179.5,479.6
					c-2.7,2.7-2.7,7.1,0,9.8c2.7,2.7,7.1,2.7,9.8,0c2.7-2.7,2.7-7.1,0-9.8C186.6,476.9,182.2,476.9,179.5,479.6 M197.4,461.7
					c-2.7,2.7-2.7,7.1,0,9.8c2.7,2.7,7.1,2.7,9.8,0c2.7-2.7,2.7-7,0-9.8C204.4,459.1,200.1,459.1,197.4,461.7 M148.4,551.6
					c2.2,0.4,4.4,0.8,6.7,1.1C153.2,551.2,150.7,550.8,148.4,551.6 M173.6,535.3c-2.7-2.7-7.1-2.7-9.8,0c-2.7,2.7-2.7,7,0,9.7
					c2.7,2.7,7.1,2.7,9.8,0C176.3,542.4,176.3,538,173.6,535.3 M276.5,389c-2.9,2.6-6.1,5.2-9.5,7.5c0.2,1.3,0.8,2.6,1.8,3.6
					c2.7,2.7,7.1,2.7,9.8,0c2.7-2.7,2.7-7.1,0-9.8C278,389.8,277.3,389.4,276.5,389 M199.6,499.6c-2.7,2.7-2.7,7.1,0,9.8
					c2.7,2.7,7.1,2.7,9.8,0c2.7-2.7,2.7-7.1,0-9.8C206.6,496.9,202.3,496.9,199.6,499.6 M222.8,415.8c0.1-0.1,0.2-0.3,0.2-0.4
					c-2.6,0.6-5.2,1.2-8,1.7C217.6,418.3,220.7,417.9,222.8,415.8 M-156.5,393.9c2.7-2.7,2.7-7,0-9.7c-2.7-2.7-7.1-2.7-9.8,0
					c-2.7,2.7-2.7,7.1,0,9.7C-163.6,396.6-159.2,396.5-156.5,393.9 M-22.7,420.5c2.7-2.7,2.7-7.1,0-9.8c-2.7-2.7-7.1-2.7-9.8,0
					c-2.7,2.7-2.7,7.1,0,9.7C-29.7,423.2-25.3,423.2-22.7,420.5 M-24.9,382.6c2.7-2.7,2.7-7.1,0-9.8c-2.7-2.7-7.1-2.7-9.8,0
					c-2.7,2.7-2.7,7.1,0,9.8C-31.9,385.3-27.5,385.3-24.9,382.6 M-42.7,400.4c2.7-2.7,2.7-7.1,0-9.8c-2.7-2.7-7.1-2.7-9.8,0
					c-2.7,2.7-2.7,7.1,0,9.7C-49.8,403.1-45.4,403.1-42.7,400.4 M-100.7,378.2c2.7-2.7,2.7-7.1,0-9.8c-2.7-2.7-7.1-2.7-9.8,0
					c-2.7,2.7-2.7,7.1,0,9.8C-107.8,380.9-103.4,380.9-100.7,378.2 M-38.3,466.4c-2.7-2.7-7-2.7-9.8,0c-2.7,2.7-2.7,7.1,0,9.7
					c2.7,2.7,7.1,2.7,9.7,0C-35.6,473.5-35.6,469.1-38.3,466.4 M-20.5,458.3c2.7-2.7,2.7-7.1,0-9.7c-2.7-2.7-7.1-2.7-9.8,0
					c-2.7,2.7-2.7,7.1,0,9.7C-27.5,461-23.2,461-20.5,458.3 M-18.3,486.5c-2.7-2.7-7.1-2.7-9.8,0c-2.7,2.7-2.7,7,0,9.7
					c2.7,2.7,7.1,2.7,9.7,0C-15.6,493.5-15.6,489.2-18.3,486.5 M-2.6,440.5c2.7-2.7,2.7-7.1,0-9.8c-2.7-2.7-7.1-2.7-9.8,0
					c-2.7,2.7-2.7,7.1,0,9.7C-9.7,443.2-5.3,443.2-2.6,440.5 M-10.2,468.6c-2.7,2.7-2.7,7.1,0,9.7c2.7,2.7,7.1,2.7,9.8,0
					c2.7-2.7,2.7-7.1,0-9.7C-3.1,466-7.5,465.9-10.2,468.6 M-4.8,402.6c2.7-2.7,2.7-7.1,0-9.7c-2.7-2.7-7.1-2.7-9.8,0
					c-2.7,2.7-2.7,7,0,9.7C-11.9,405.3-7.5,405.3-4.8,402.6 M77.7,510.9c-2.7-2.7-7.1-2.7-9.8,0c-2.7,2.7-2.7,7.1,0,9.7
					c2.7,2.7,7.1,2.7,9.8,0C80.4,517.9,80.4,513.6,77.7,510.9 M57.6,490.9c-2.7-2.7-7.1-2.7-9.8,0c-2.7,2.7-2.7,7.1,0,9.8
					c2.7,2.7,7.1,2.7,9.8,0C60.3,497.9,60.3,493.5,57.6,490.9 M61.3,397.3c-2.7,2.7-2.7,7.1,0,9.8c2.7,2.7,7.1,2.7,9.8,0
					c2.7-2.7,2.7-7.1,0-9.7C68.4,394.6,64,394.6,61.3,397.3 M43.4,415.1c-2.7,2.7-2.7,7.1,0,9.7c2.7,2.7,7.1,2.7,9.8,0
					c2.7-2.7,2.7-7.1,0-9.8C50.5,412.4,46.1,412.4,43.4,415.1 M63.5,435.1c-2.7,2.7-2.7,7,0,9.8c2.7,2.7,7,2.7,9.7,0
					c2.7-2.7,2.7-7.1,0-9.8C70.6,432.5,66.2,432.5,63.5,435.1 M55.4,462.7c2.7-2.7,2.7-7.1,0-9.8c-2.7-2.7-7.1-2.7-9.8,0
					c-2.7,2.7-2.7,7.1,0,9.8C48.3,465.4,52.7,465.4,55.4,462.7 M81.4,417.3c-2.7,2.7-2.7,7.1,0,9.8c2.7,2.7,7.1,2.7,9.8,0
					c2.7-2.7,2.7-7.1,0-9.8C88.4,414.6,84.1,414.6,81.4,417.3 M83.6,455.2c-2.7,2.7-2.7,7,0,9.7c2.7,2.7,7.1,2.7,9.8,0
					c2.7-2.7,2.7-7.1,0-9.8C90.6,452.5,86.3,452.5,83.6,455.2 M41.2,387c2.7,2.7,7.1,2.7,9.8,0c0.2-0.2,0.3-0.5,0.5-0.8
					c-4-1.6-8.1-3.3-12.1-4.9C39.1,383.3,39.7,385.4,41.2,387 M3.3,375c-2.7,2.7-2.7,7.1,0,9.7c2.7,2.7,7.1,2.7,9.8,0
					c2.7-2.7,2.7-7.1,0-9.8C10.4,372.4,6,372.3,3.3,375 M75.5,482.8c2.7-2.7,2.7-7.1,0-9.8c-2.7-2.7-7.1-2.7-9.8,0
					c-2.7,2.7-2.7,7.1,0,9.7C68.4,485.5,72.8,485.5,75.5,482.8 M-40.5,438.3c2.7-2.7,2.7-7,0-9.8c-2.7-2.7-7.1-2.7-9.8,0
					c-2.7,2.7-2.7,7.1,0,9.8C-47.6,441-43.2,441-40.5,438.3 M15.3,422.7c2.7-2.7,2.7-7.1,0-9.8c-2.7-2.7-7.1-2.7-9.8,0
					c-2.7,2.7-2.7,7.1,0,9.7C8.2,425.4,12.6,425.4,15.3,422.7 M-121.2,358.4c-2.1,0.4-4.2,0.9-6.3,1.4
					C-125.3,360.4-123,360-121.2,358.4 M-138.7,376c2.7-2.7,2.7-7,0-9.7c-1.2-1.2-2.7-1.8-4.2-1.9c-1.9,0.7-3.8,1.4-5.6,2.1
					c-2.6,2.7-2.5,6.9,0.1,9.6C-145.7,378.7-141.3,378.7-138.7,376 M-118.6,396.1c2.7-2.7,2.7-7.1,0-9.8c-2.7-2.7-7.1-2.7-9.8,0
					c-2.7,2.7-2.7,7,0,9.7C-125.6,398.7-121.3,398.7-118.6,396.1 M-116.4,433.9c2.7-2.7,2.7-7.1,0-9.7c-2.7-2.7-7.1-2.7-9.8,0
					c-2.7,2.7-2.7,7.1,0,9.8C-123.5,436.6-119.1,436.6-116.4,433.9 M-123.9,462c-2.7,2.7-2.7,7.1,0,9.8c2.7,2.7,7.1,2.7,9.8,0
					c2.7-2.7,2.7-7.1,0-9.8C-116.9,459.4-121.3,459.4-123.9,462 M-154.3,431.7c2.7-2.7,2.7-7.1,0-9.7c-2.7-2.7-7.1-2.7-9.8,0
					c-2.7,2.7-2.7,7.1,0,9.7C-161.4,434.4-157,434.4-154.3,431.7 M-141.6,479.8c2.6-0.4,5.2-0.7,7.9-1
					C-136.3,477.4-139.4,477.7-141.6,479.8 M-136.5,413.9c2.7-2.7,2.7-7,0-9.7c-2.7-2.7-7.1-2.7-9.8,0c-2.7,2.7-2.7,7.1,0,9.7
					C-143.5,416.6-139.1,416.6-136.5,413.9 M-253.4,520.9c2.7,2.7,7.1,2.7,9.8,0c2.7-2.7,2.7-7.1,0-9.8c-2.7-2.7-7.1-2.7-9.8,0
					C-256.1,513.9-256.1,518.3-253.4,520.9 M-161.9,459.9c-2.7,2.7-2.7,7.1,0,9.8c2.7,2.7,7.1,2.7,9.8,0c2.7-2.7,2.7-7.1,0-9.8
					C-154.8,457.2-159.2,457.2-161.9,459.9 M23.4,395.1c-2.7,2.7-2.7,7.1,0,9.8c2.7,2.7,7,2.7,9.7,0c2.7-2.7,2.7-7.1,0-9.7
					C30.4,392.4,26.1,392.4,23.4,395.1 M-134.3,451.8c2.7-2.7,2.7-7.1,0-9.7c-2.7-2.7-7.1-2.7-9.8,0c-2.7,2.7-2.7,7.1,0,9.7
					C-141.3,454.4-137,454.5-134.3,451.8 M9.9,488.7c-2.7,2.7-2.7,7.1,0,9.7c2.7,2.7,7.1,2.7,9.8,0c2.7-2.7,2.7-7.1,0-9.7
					C17,486,12.6,486,9.9,488.7 M27.8,470.8c-2.7,2.7-2.7,7.1,0,9.8c2.7,2.7,7.1,2.7,9.7,0c2.7-2.7,2.7-7.1,0-9.8
					C34.8,468.1,30.5,468.1,27.8,470.8 M17.5,460.6c2.7-2.7,2.7-7.1,0-9.8c-2.7-2.7-7.1-2.7-9.8,0c-2.7,2.7-2.7,7.1,0,9.8
					C10.4,463.2,14.8,463.2,17.5,460.6 M35.3,442.7c2.7-2.7,2.7-7.1,0-9.8c-2.7-2.7-7.1-2.7-9.8,0c-2.7,2.7-2.7,7.1,0,9.7
					C28.3,445.4,32.6,445.4,35.3,442.7 M-174.4,411.7c2.7-2.7,2.7-7,0-9.7c-2.7-2.7-7.1-2.7-9.8,0c-2.7,2.7-2.7,7.1,0,9.7
					C-181.5,414.4-177.1,414.4-174.4,411.7 M-7.6,365.1c-3.5-1-7.1-1.9-10.7-2.8c0.3,0.9,0.8,1.7,1.5,2.4
					C-14.2,367.3-10.3,367.3-7.6,365.1 M-172.2,449.6c2.7-2.7,2.7-7.1,0-9.8c-2.7-2.7-7.1-2.7-9.8,0c-2.7,2.7-2.7,7.1,0,9.8
					C-179.2,452.3-174.9,452.3-172.2,449.6 M-54.7,362.6c2.7,2.7,7.1,2.7,9.8,0c1.4-1.4,2.1-3.3,2-5.1c-4.4-0.7-8.9-1.2-13.4-1.7
					C-57,358.1-56.5,360.7-54.7,362.6 M39.7,508.7c-2.7-2.7-7.1-2.7-9.8,0c-2.7,2.7-2.7,7.1,0,9.8c0.1,0.1,0.2,0.1,0.3,0.2
					c1.7,0.6,3.3,1.2,5,1.7c1.6-0.1,3.2-0.7,4.5-1.9C42.4,515.8,42.4,511.4,39.7,508.7 M331.5,177.3c2.7,2.7,7,2.7,9.7,0.1
					c-3.8-1.3-7.6-2.4-11.4-3.3C330.1,175.2,330.6,176.3,331.5,177.3 M293.6,175.1c2.7,2.7,7.1,2.7,9.8,0c1.3-1.3,1.9-2.9,2-4.5
					c-4.6-0.2-9.1-0.1-13.6,0.3C291.9,172.4,292.4,173.9,293.6,175.1 M353.8,225.4c-2.7,2.7-2.7,7.1,0,9.7c2.7,2.7,7.1,2.7,9.8,0
					c2.7-2.7,2.7-7,0-9.8C360.9,222.8,356.5,222.7,353.8,225.4 M313.7,195.1c2.7,2.7,7,2.7,9.7,0c2.7-2.7,2.7-7.1,0-9.7
					c-2.7-2.7-7.1-2.7-9.8,0C311,188,311,192.4,313.7,195.1 M306.7,277.3c0.6,4.2,1,8.4,1.3,12.7c0.7-0.3,1.3-0.7,1.9-1.2
					c2.7-2.7,2.7-7.1,0-9.8C309,278,307.9,277.5,306.7,277.3 M315.8,223.2c-2.7,2.7-2.7,7.1,0,9.7c2.7,2.7,7.1,2.7,9.8,0
					c2.7-2.7,2.7-7,0-9.8C322.9,220.6,318.5,220.6,315.8,223.2 M279,181.5c1.4,3.5,3.1,7.7,5,12.4c0.5-0.3,1.1-0.5,1.5-1
					c2.7-2.7,2.7-7.1,0-9.8C283.7,181.4,281.3,180.9,279,181.5 M318,261.1c-2.7,2.7-2.7,7.1,0,9.7c2.7,2.7,7,2.7,9.8,0
					c2.7-2.7,2.7-7.1,0-9.7C325.1,258.4,320.7,258.4,318,261.1 M320.2,299c-2.7,2.7-2.7,7,0,9.7c2.7,2.7,7.1,2.7,9.8,0
					c2.7-2.7,2.7-7.1,0-9.8C327.3,296.3,322.9,296.3,320.2,299 M333.7,205.4c-2.7,2.7-2.7,7.1,0,9.7c2.7,2.7,7.1,2.7,9.8,0
					c2.7-2.7,2.7-7.1,0-9.7C340.8,202.7,336.4,202.7,333.7,205.4 M334.4,384.5c2.7-2.7,2.7-7.1,0-9.8c-2.7-2.7-7.1-2.7-9.8,0
					c-2.7,2.7-2.7,7.1,0,9.7C327.3,387.2,331.7,387.2,334.4,384.5 M336.6,422.4c2.7-2.7,2.7-7.1,0-9.8c-2.7-2.7-7.1-2.7-9.8,0
					c-2.7,2.7-2.7,7,0,9.7C329.5,425.1,333.9,425.1,336.6,422.4 M342.5,356.9c-2.7,2.7-2.7,7.1,0,9.8c2.7,2.7,7.1,2.7,9.8,0
					c2.7-2.7,2.7-7.1,0-9.8C349.6,354.2,345.2,354.2,342.5,356.9 M341,488.4c-2.7-2.7-7.1-2.7-9.8,0c-2.7,2.7-2.7,7,0,9.7
					c2.7,2.7,7.1,2.7,9.8,0C343.7,495.4,343.7,491.1,341,488.4 M340.3,319c-2.7,2.7-2.7,7.1,0,9.7c2.7,2.7,7.1,2.7,9.8,0
					c2.7-2.7,2.7-7.1,0-9.8C347.4,316.3,343,316.3,340.3,319 M314.3,364.5c2.7-2.7,2.7-7.1,0-9.8c-2.7-2.7-7.1-2.7-9.8,0
					c-2.7,2.7-2.7,7.1,0,9.7C307.2,367.1,311.6,367.1,314.3,364.5 M318.7,440.2c2.7-2.7,2.7-7.1,0-9.8c-2.7-2.7-7.1-2.7-9.8,0
					c-2.7,2.7-2.7,7,0,9.8C311.6,442.9,316,442.9,318.7,440.2 M316.5,402.4c2.7-2.7,2.7-7.1,0-9.8c-2.7-2.7-7.1-2.7-9.8,0
					c-2.7,2.7-2.7,7,0,9.7C309.5,405,313.8,405,316.5,402.4 M280.8,438c2.7-2.7,2.7-7.1,0-9.7c-2.7-2.7-7.1-2.7-9.8,0
					c-2.7,2.7-2.7,7.1,0,9.8C273.7,440.7,278.1,440.7,280.8,438 M300.9,458.1c2.7-2.7,2.7-7.1,0-9.8c-2.7-2.7-7-2.7-9.8,0
					c-2.7,2.7-2.7,7.1,0,9.8C293.8,460.7,298.2,460.8,300.9,458.1 M298.7,420.2c2.7-2.7,2.7-7.1,0-9.8c-2.7-2.7-7.1-2.7-9.8,0
					c-2.7,2.7-2.7,7.1,0,9.7C291.6,422.9,296,422.9,298.7,420.2 M285.2,513.8c2.7-2.7,2.7-7.1,0-9.8c-2.7-2.7-7.1-2.7-9.8,0
					c-2.7,2.7-2.7,7.1,0,9.8C278.1,516.5,282.5,516.5,285.2,513.8 M293.3,486.2c-2.7,2.7-2.7,7.1,0,9.8c2.7,2.7,7.1,2.7,9.8,0
					c2.7-2.7,2.7-7.1,0-9.8C300.4,483.5,296,483.5,293.3,486.2 M338.8,460.3c2.7-2.7,2.7-7.1,0-9.8c-2.7-2.7-7.1-2.7-9.8,0
					c-2.7,2.7-2.7,7.1,0,9.8C331.7,462.9,336.1,462.9,338.8,460.3 M323.1,506.2c-2.7-2.7-7.1-2.7-9.8,0c-2.7,2.7-2.7,7.1,0,9.7
					c2.7,2.7,7.1,2.7,9.8,0C325.8,513.3,325.8,508.9,323.1,506.2 M311.2,468.3c-2.7,2.7-2.7,7.1,0,9.8c2.7,2.7,7.1,2.7,9.8,0
					c2.7-2.7,2.7-7.1,0-9.8C318.2,465.6,313.8,465.6,311.2,468.3 M305.3,524.1c-2.7-2.7-7.1-2.7-9.8,0c-2.7,2.7-2.7,7.1,0,9.8
					c2.7,2.7,7.1,2.7,9.8,0C308,531.1,307.9,526.7,305.3,524.1 M332.2,346.6c2.7-2.7,2.7-7.1,0-9.7c-2.7-2.7-7.1-2.7-9.8,0
					c-2.7,2.7-2.7,7.1,0,9.8C325.1,349.3,329.5,349.3,332.2,346.6 M371.6,207.6c-2.7,2.7-2.7,7.1,0,9.8c2.7,2.7,7.1,2.7,9.8,0
					c2.7-2.7,2.7-7.1,0-9.7C378.7,204.9,374.3,204.9,371.6,207.6 M358.2,301.2c-2.7,2.7-2.7,7.1,0,9.7c2.7,2.7,7.1,2.7,9.8,0
					c2.7-2.7,2.7-7.1,0-9.8C365.3,298.5,360.9,298.5,358.2,301.2 M356,263.3c-2.7,2.7-2.7,7.1,0,9.7c2.7,2.7,7.1,2.7,9.8,0
					c2.7-2.7,2.7-7,0-9.7C363,260.6,358.7,260.6,356,263.3 M373.8,245.5c-2.7,2.7-2.7,7,0,9.8c2.7,2.7,7.1,2.7,9.8,0
					c2.7-2.7,2.7-7.1,0-9.8C380.9,242.8,376.5,242.8,373.8,245.5 M388,331c2.7-2.7,2.7-7.1,0-9.8c-2.7-2.7-7.1-2.7-9.8,0
					c-2.7,2.7-2.7,7,0,9.7C380.9,333.7,385.3,333.7,388,331 M376,283.4c-2.7,2.7-2.7,7.1,0,9.7c2.7,2.7,7.1,2.7,9.8,0
					c2.7-2.7,2.7-7.1,0-9.7C383.1,280.7,378.7,280.7,376,283.4 M267.3,521.9c-2.7-2.7-7.1-2.7-9.8,0c-2.7,2.7-2.7,7.1,0,9.8
					c2.7,2.7,7.1,2.7,9.8,0C270,528.9,270,524.5,267.3,521.9 M335.9,243.3c-2.7,2.7-2.7,7.1,0,9.7c2.7,2.7,7.1,2.7,9.8,0
					c2.7-2.7,2.7-7.1,0-9.7C343,240.6,338.6,240.6,335.9,243.3 M338.1,281.2c-2.7,2.7-2.7,7,0,9.7c2.7,2.7,7.1,2.7,9.7,0
					c2.7-2.7,2.7-7.1,0-9.8C345.2,278.5,340.8,278.5,338.1,281.2 M351.6,187.6c-2.7,2.7-2.7,7.1,0,9.7c2.7,2.7,7.1,2.7,9.8,0
					c2.7-2.7,2.7-7,0-9.7C358.6,184.9,354.3,184.9,351.6,187.6 M391.7,227.6c-2.7,2.7-2.7,7.1,0,9.7c2.7,2.7,7.1,2.7,9.8,0
					c2.7-2.7,2.7-7.1,0-9.7C398.8,224.9,394.4,224.9,391.7,227.6 M221.8,557.5C221.8,557.6,221.8,557.6,221.8,557.5
					c3-0.1,6.1-0.2,9.2-0.4C228.3,555,224.3,555,221.8,557.5 M431.8,267.7c-2.7,2.7-2.7,7.1,0,9.7c2.1,2.1,5.1,2.5,7.6,1.4
					c-1.5-4.3-3.1-8.6-4.9-12.7C433.6,266.4,432.6,266.9,431.8,267.7 M351.3,508.4c-1.9,2-2.4,4.8-1.6,7.2c3.4-2.5,6.8-5.2,10.2-8
					C357.2,505.9,353.6,506.1,351.3,508.4 M333.2,526.6c1.2-0.7,2.3-1.4,3.5-2.1c-1.2,0.3-2.3,0.8-3.2,1.7
					C333.3,526.4,333.3,526.5,333.2,526.6 M287.4,541.9c-2.7-2.7-7.1-2.7-9.8,0c-2.3,2.2-2.5,5.6-1,8.2c4.3-1.1,8.5-2.3,12.7-3.7
					C289.3,544.8,288.7,543.2,287.4,541.9 M283,475.9c2.7-2.7,2.7-7.1,0-9.7c-2.7-2.7-7.1-2.7-9.8,0c-2.7,2.7-2.7,7.1,0,9.7
					C275.9,478.6,280.3,478.6,283,475.9"/>
			</g>
		</g>
		<g id="Backgrounds_x2F_Vector_x2F_Leaf03" transform="translate(1752.000000, 482.000000)">
			<g id="Page-1_3_">
				<path id="Fill-1_3_" class="st6" d="M-233.2,415.4c-38.9,33.3-82.7,74.9-119.3,121.5l139.6-138.6
					C-219.8,404-226.5,409.7-233.2,415.4"/>
				<path id="Fill-3" class="st6" d="M-45.8,465.4l109-108.9c8.9-11.9,17.1-24.2,24.7-36.9l-206.7,206.6
					C-94.4,505.5-69.3,485.2-45.8,465.4"/>
				<path id="Fill-5" class="st6" d="M-426,738.1l558.9-557.7c0.3-4.2,0.4-8.5,0.5-12.8l-561.2,560
					C-427.2,731.1-426.7,734.6-426,738.1"/>
				<path id="Fill-7" class="st6" d="M-421.4,755.1L130.8,204c0.7-4.6,1.3-9.3,1.7-14l-556.7,555.6
					C-423.3,748.8-422.4,752-421.4,755.1"/>
				<path id="Fill-9" class="st6" d="M-415.2,770.3l540.7-539.5c1.3-5.2,2.5-10.5,3.5-15.7l-547.7,546.6
					C-417.6,764.5-416.5,767.4-415.2,770.3"/>
				<path id="Fill-11" class="st6" d="M-399.6,798L99.5,299.6c3.9-7.5,7.4-15.2,10.7-22.9l-514.6,513.9
					C-402.9,793.1-401.3,795.6-399.6,798"/>
				<path id="Fill-13" class="st6" d="M-408.2,784.6l524.1-522.8c2.2-6,4.2-12.1,6-18.2l-534.3,533
					C-411.1,779.3-409.7,782-408.2,784.6"/>
				<path id="Fill-15" class="st6" d="M131.4,126.5L-427,684.1c-0.7,4.6-1.3,9.2-1.6,13.8l561.2-560.3
					C132.2,133.9,131.8,130.2,131.4,126.5"/>
				<path id="Fill-17" class="st6" d="M124.8,90.7l-529.7,529.1c-3.4,7.2-6.6,14.4-9.4,21.7l541.5-540.9
					C126.5,97.3,125.7,94,124.8,90.7"/>
				<path id="Fill-19" class="st6" d="M119.8,74.6l-235.9,235.5c-10.4,11.4-21.5,22.3-32.9,32.8l-227.6,227.2
					c-6.8,10.2-13.2,20.6-19,31.2L122.7,84C121.8,80.9,120.8,77.7,119.8,74.6"/>
				<path id="Fill-21" class="st6" d="M128.9,108.6l-548.2,547.1c-0.6,1.8-1.2,3.7-1.8,5.5c-1.2,3.9-2.2,7.7-3.1,11.6L130.8,119
					C130.2,115.5,129.6,112.1,128.9,108.6"/>
				<g id="Group-25" transform="translate(0.000000, 97.206428)">
					<g id="Clip-24">
					</g>
					<defs>
						<filter id="Adobe_OpacityMaskFilter_2_" filterUnits="userSpaceOnUse" x="-428.6" y="49.5" width="562.5" height="573.1">
							<feColorMatrix  type="matrix" values="1 0 0 0 0  0 1 0 0 0  0 0 1 0 0  0 0 0 1 0"/>
						</filter>
					</defs>
					<mask maskUnits="userSpaceOnUse" x="-428.6" y="49.5" width="562.5" height="573.1" id="mask-8_1_">
						<g class="st7">
							<polygon id="path-7_1_" class="st2" points="-428.6,49.5 133.9,49.5 133.9,622.6 -428.6,622.6 							"/>
						</g>
					</mask>
					<path id="Fill-23" class="st8" d="M133.4,49.5l-562,561.3c0,4,0.1,7.9,0.4,11.8l562-561.3C133.8,57.4,133.7,53.4,133.4,49.5"/>
				</g>
			</g>
		</g>
		<g id="Backgrounds_x2F_Vector_x2F_Leaf02_1_" transform="translate(1144.000000, 119.000000)">
			<g id="Page-1_4_">
				<g id="Clip-2_3_">
				</g>
				<defs>
					<filter id="Adobe_OpacityMaskFilter_3_" filterUnits="userSpaceOnUse" x="-268" y="170.5" width="716" height="387.1">
						<feColorMatrix  type="matrix" values="1 0 0 0 0  0 1 0 0 0  0 0 1 0 0  0 0 0 1 0"/>
					</filter>
				</defs>
				<mask maskUnits="userSpaceOnUse" x="-268" y="170.5" width="716" height="387.1" id="mask-10_1_">
					<g class="st9">
						<polygon id="path-9_1_" class="st2" points="-268,170.5 448,170.5 448,557.6 -268,557.6 						"/>
					</g>
				</mask>
				<path id="Fill-1_4_" class="st10" d="M434,305.6c-2.7,2.7-2.7,7.1,0,9.7c2.7,2.7,7.1,2.7,9.8,0c2.7-2.7,2.7-7.1,0-9.8
					C441.1,302.9,436.7,302.9,434,305.6 M372.3,386.7c2.7-2.7,2.7-7.1,0-9.8c-2.7-2.7-7.1-2.7-9.8,0c-2.7,2.7-2.7,7.1,0,9.8
					C365.3,389.4,369.6,389.4,372.3,386.7 M411.8,247.7c-2.7,2.7-2.7,7.1,0,9.8c2.7,2.7,7.1,2.7,9.8,0c2.7-2.7,2.7-7.1,0-9.8
					C418.9,245,414.5,245,411.8,247.7 M414,285.6c-2.7,2.7-2.7,7,0,9.7c2.7,2.7,7.1,2.7,9.8,0c2.7-2.7,2.7-7.1,0-9.7
					C421,282.8,416.7,282.9,414,285.6 M418.4,361.3c-2.7,2.7-2.7,7.1,0,9.7c2.7,2.7,7.1,2.7,9.7,0c2.7-2.7,2.7-7.1,0-9.8
					C425.4,358.6,421.1,358.6,418.4,361.3 M416.2,323.4c-2.7,2.7-2.7,7.1,0,9.7c2.7,2.7,7.1,2.7,9.8,0c2.7-2.7,2.7-7.1,0-9.7
					C423.2,320.7,418.9,320.7,416.2,323.4 M396.1,303.4c-2.7,2.7-2.7,7,0,9.7c2.7,2.7,7.1,2.7,9.8,0c2.7-2.7,2.7-7.1,0-9.8
					C403.2,300.7,398.8,300.7,396.1,303.4 M376.7,462.5c2.7-2.7,2.7-7.1,0-9.8c-2.7-2.7-7.1-2.7-9.8,0c-2.7,2.7-2.7,7,0,9.7
					C369.6,465.1,374,465.1,376.7,462.5 M430.3,408.9c2.7-2.7,2.7-7.1,0-9.8c-2.7-2.7-7.1-2.7-9.8,0c-2.7,2.7-2.7,7.1,0,9.8
					C423.3,411.6,427.6,411.6,430.3,408.9 M374.5,424.6c2.7-2.7,2.7-7.1,0-9.8c-2.7-2.7-7.1-2.7-9.8,0c-2.7,2.7-2.7,7.1,0,9.7
					C367.5,427.3,371.8,427.3,374.5,424.6 M393.9,265.5c-2.7,2.7-2.7,7.1,0,9.7c2.7,2.7,7.1,2.7,9.8,0c2.7-2.7,2.7-7.1,0-9.7
					C401,262.8,396.6,262.8,393.9,265.5 M390.2,368.8c2.7-2.7,2.7-7.1,0-9.8c-2.7-2.7-7.1-2.7-9.8,0c-2.7,2.7-2.7,7,0,9.7
					C383.1,371.5,387.5,371.5,390.2,368.8 M398.3,341.3c-2.7,2.7-2.7,7,0,9.7c2.7,2.7,7.1,2.7,9.8,0c2.7-2.7,2.7-7.1,0-9.8
					C405.4,338.6,401,338.6,398.3,341.3 M400.5,379.1c-2.7,2.7-2.7,7.1,0,9.7c2.7,2.7,7.1,2.7,9.8,0c2.7-2.7,2.7-7.1,0-9.8
					C407.6,376.4,403.2,376.4,400.5,379.1 M412.5,426.8c2.7-2.7,2.7-7.1,0-9.7c-2.7-2.7-7.1-2.7-9.8,0c-2.7,2.7-2.7,7.1,0,9.8
					C405.4,429.4,409.8,429.4,412.5,426.8 M369.2,490.6c-2.6,2.5-2.6,6.5-0.3,9.2c3.3-3,6.5-6.2,9.8-9.5
					C375.8,488,371.7,488,369.2,490.6 M403.1,461c1.9-2.6,3.8-5.3,5.6-7.9c-1.4,0.2-2.7,0.7-3.8,1.8
					C403.2,456.6,402.7,458.8,403.1,461 M439.3,391.6c1.3-4.1,2.5-8.2,3.5-12.2c-1.6,0.1-3.2,0.7-4.4,1.9c-2.7,2.7-2.7,7,0,9.7
					C438.7,391.3,439,391.4,439.3,391.6 M387,472.7c-2.4,2.4-2.6,6.3-0.5,9c2.9-3.3,5.7-6.6,8.5-10.1
					C392.4,470.2,389.2,470.6,387,472.7 M394.6,444.6c2.7-2.7,2.7-7.1,0-9.8c-2.7-2.7-7.1-2.7-9.8,0c-2.7,2.7-2.7,7,0,9.7
					C387.5,447.3,391.9,447.3,394.6,444.6 M436.2,343.5c-2.7,2.7-2.7,7.1,0,9.8c2.7,2.7,7.1,2.7,9.8,0c1.3-1.3,2-3.1,2-4.8v-0.2
					c0-1.7-0.7-3.5-2-4.8C443.3,340.8,438.9,340.8,436.2,343.5 M392.4,406.7c2.7-2.7,2.7-7.1,0-9.7c-2.7-2.7-7.1-2.7-9.8,0
					c-2.7,2.7-2.7,7.1,0,9.7C385.3,409.4,389.7,409.4,392.4,406.7 M285.2,380c0.3,0.8,0.8,1.6,1.5,2.3c2.7,2.7,7.1,2.7,9.8,0
					c2.7-2.7,2.7-7.1,0-9.8c-1.2-1.2-2.8-1.8-4.4-1.9C290,373.9,287.7,377,285.2,380 M141.6,477.4c-2.7,2.7-2.7,7.1,0,9.8
					c2.7,2.7,7.1,2.7,9.8,0c2.7-2.7,2.7-7.1,0-9.8C148.6,474.7,144.3,474.7,141.6,477.4 M149.1,449.3c2.7-2.7,2.7-7.1,0-9.7
					c-2.7-2.7-7.1-2.7-9.8,0c-2.7,2.7-2.7,7,0,9.7C142.1,452,146.4,452,149.1,449.3 M99.2,409.2c2.7,2.7,7.1,2.7,9.8,0
					c0.2-0.2,0.3-0.5,0.5-0.7c-4.1-1.3-8.2-2.7-12.3-4.2C97.2,406,97.9,407.8,99.2,409.2 M123.7,495.3c-2.7,2.7-2.7,7,0,9.7
					c2.7,2.7,7.1,2.7,9.8,0c2.7-2.7,2.7-7.1,0-9.7C130.8,492.6,126.4,492.6,123.7,495.3 M135.6,533.1c-2.7-2.7-7.1-2.7-9.8,0
					c-2.7,2.7-2.7,7.1,0,9.7c2.7,2.7,7.1,2.7,9.7,0C138.4,540.2,138.3,535.8,135.6,533.1 M-54.3,488.5c-0.2-1.5-0.7-3-1.9-4.2
					c-2.7-2.7-7.1-2.7-9.8,0c-0.2,0.2-0.2,0.4-0.4,0.6c1.6,0.5,3.2,0.9,4.9,1.4C-59.1,486.9-56.7,487.7-54.3,488.5 M-225.8,503.1
					c2.7-2.7,2.7-7.1,0-9.8c-2.7-2.7-7.1-2.7-9.8,0c-2.7,2.7-2.7,7.1,0,9.7C-232.9,505.8-228.5,505.8-225.8,503.1 M-210.1,447.4
					c2.7-2.7,2.7-7.1,0-9.8c-2.7-2.7-7.1-2.7-9.8,0c-2.7,2.7-2.7,7.1,0,9.8C-217.2,450.1-212.8,450.1-210.1,447.4 M121.5,457.4
					c-2.7,2.7-2.7,7.1,0,9.7c2.7,2.7,7.1,2.7,9.8,0c2.7-2.7,2.7-7.1,0-9.8C128.6,454.7,124.2,454.7,121.5,457.4 M358.9,470.5
					c-2.7-2.7-7.1-2.7-9.8,0c-2.7,2.7-2.7,7.1,0,9.7c2.7,2.7,7.1,2.7,9.8,0C361.5,477.6,361.5,473.2,358.9,470.5 M-207.9,485.3
					c2.7-2.7,2.7-7.1,0-9.7c-2.7-2.7-7.1-2.7-9.8,0c-2.7,2.7-2.7,7,0,9.7C-215,487.9-210.6,487.9-207.9,485.3 M354.5,404.5
					c2.7-2.7,2.7-7.1,0-9.8c-2.7-2.7-7.1-2.7-9.8,0c-2.7,2.7-2.7,7,0,9.7C347.4,407.2,351.8,407.2,354.5,404.5 M308.4,315.1
					c-0.2,4.5-0.7,9.1-1.3,13.5c1.8,0,3.7-0.6,5.1-2c2.7-2.7,2.7-7.1,0-9.7C311.1,315.8,309.8,315.3,308.4,315.1 M-228,465.2
					c2.7-2.7,2.7-7.1,0-9.7c-2.7-2.7-7.1-2.7-9.8,0c-2.7,2.7-2.7,7.1,0,9.7C-235,467.9-230.7,467.9-228,465.2 M119.3,419.5
					c-2.7,2.7-2.7,7.1,0,9.8c2.7,2.7,7.1,2.7,9.8,0c2.7-2.7,2.7-7,0-9.8C126.4,416.8,122,416.8,119.3,419.5 M360.4,339.1
					c-2.7,2.7-2.7,7,0,9.7c2.7,2.7,7.1,2.7,9.8,0c2.7-2.7,2.7-7.1,0-9.8C367.4,336.4,363.1,336.4,360.4,339.1 M101.4,437.3
					c-2.7,2.7-2.7,7.1,0,9.8c2.7,2.7,7.1,2.7,9.8,0c2.7-2.7,2.7-7.1,0-9.8C108.5,434.6,104.1,434.6,101.4,437.3 M251,418
					c2.7,2.7,7.1,2.7,9.8,0c2.7-2.7,2.7-7.1,0-9.7c-2.7-2.7-7.1-2.7-9.8,0C248.3,410.9,248.3,415.3,251,418 M105.8,513.1
					c-2.7,2.7-2.7,7.1,0,9.7c2.7,2.7,7.1,2.7,9.8,0c2.7-2.7,2.7-7.1,0-9.8C112.9,510.4,108.5,510.4,105.8,513.1 M103.6,475.2
					c-2.7,2.7-2.7,7.1,0,9.7c2.7,2.7,7.1,2.7,9.8,0c2.7-2.7,2.7-7.1,0-9.8C110.7,472.5,106.3,472.5,103.6,475.2 M356.7,442.4
					c2.7-2.7,2.7-7.1,0-9.8c-2.7-2.7-7.1-2.7-9.8,0c-2.7,2.7-2.7,7.1,0,9.8C349.6,445.1,354,445.1,356.7,442.4 M295.8,203.2
					c-2.7,2.7-2.7,7.1,0,9.7c2.7,2.7,7.1,2.7,9.7,0c2.7-2.7,2.7-7.1,0-9.7C302.9,200.5,298.5,200.5,295.8,203.2 M299.2,240.3
					c1.1,4.1,2.1,8.2,3.1,12.5c1.9,0.2,3.9-0.4,5.4-1.9c2.7-2.7,2.7-7.1,0-9.8C305.4,238.8,301.9,238.6,299.2,240.3 M262.9,455.9
					c2.7-2.7,2.7-7.1,0-9.7c-2.7-2.7-7.1-2.7-9.8,0c-2.7,2.7-2.7,7.1,0,9.8C255.8,458.5,260.2,458.5,262.9,455.9 M54.3,526.9
					c1.7,0.6,3.5,1.2,5.3,1.7C58.1,527.2,56.2,526.7,54.3,526.9 M85.8,493.1c-2.7,2.7-2.7,7.1,0,9.7c2.7,2.7,7.1,2.7,9.8,0
					c2.7-2.7,2.7-7.1,0-9.8C92.8,490.4,88.5,490.4,85.8,493.1 M161.6,497.4c-2.7,2.7-2.7,7.1,0,9.8c2.7,2.7,7.1,2.7,9.8,0
					c2.7-2.7,2.7-7.1,0-9.8C168.7,494.8,164.3,494.8,161.6,497.4 M-245.9,483.1c2.7-2.7,2.7-7.1,0-9.8c-0.8-0.8-1.7-1.2-2.6-1.6
					c-1.8,4.3-3.5,8.6-5,12.8C-250.9,485.6-247.9,485.1-245.9,483.1 M-6.4,505.5c3.2,1.2,6.5,2.3,9.7,3.5c-0.3-0.9-0.8-1.7-1.6-2.5
					C-0.4,504.3-3.7,504-6.4,505.5 M255.4,484c-2.7,2.7-2.7,7,0,9.7c2.7,2.7,7.1,2.7,9.8,0c2.7-2.7,2.7-7.1,0-9.7
					C262.4,481.3,258.1,481.3,255.4,484 M-197.6,495.5c-0.6,0.7-1.1,1.4-1.4,2.2c2.7-1.3,5.5-2.6,8.3-3.8
					C-193.1,493.2-195.7,493.7-197.6,495.5 M161.3,419.8c-1.5,0.2-2.9,0.7-4.1,1.9c-2.7,2.7-2.7,7.1,0,9.7c2.7,2.7,7.1,2.7,9.8,0
					c2.7-2.7,2.7-7.1,0-9.7c-0.9-0.9-1.9-1.3-3-1.6C163.1,420,162.2,419.9,161.3,419.8 M159.4,459.6c-2.7,2.7-2.7,7.1,0,9.8
					c2.7,2.7,7.1,2.7,9.8,0c2.7-2.7,2.7-7.1,0-9.8C166.5,456.9,162.1,456.9,159.4,459.6 M97.7,530.9c-2.7-2.7-7.1-2.7-9.8,0
					c-1.6,1.6-2.1,3.8-1.8,5.8c4,1.1,8,2.3,11.9,3.4C100.3,537.4,100.3,533.4,97.7,530.9 M153.5,515.3c-2.7-2.7-7.1-2.7-9.8,0
					c-2.7,2.7-2.7,7.1,0,9.7c2.7,2.7,7.1,2.7,9.8,0C156.2,522.3,156.2,518,153.5,515.3 M-170,477.7c-2.7-2.7-7.1-2.7-9.8,0
					c-2.7,2.7-2.7,7.1,0,9.8c0.6,0.6,1.3,1,2,1.3c2.9-1,5.8-2,8.7-2.9C-167.5,483.3-167.7,479.9-170,477.7 M-190.1,457.7
					c-2.7-2.7-7.1-2.7-9.8,0c-2.7,2.7-2.7,7.1,0,9.8c2.7,2.7,7.1,2.7,9.8,0C-187.4,464.7-187.4,460.4-190.1,457.7 M-80.7,398.2
					c2.7-2.7,2.7-7.1,0-9.7c-2.7-2.7-7.1-2.7-9.8,0c-2.7,2.7-2.7,7.1,0,9.7C-87.7,400.9-83.4,400.9-80.7,398.2 M-98.5,416.1
					c2.7-2.7,2.7-7.1,0-9.8c-2.7-2.7-7.1-2.7-9.8,0c-2.7,2.7-2.7,7.1,0,9.7C-105.6,418.8-101.2,418.8-98.5,416.1 M-76.3,474
					c2.7-2.7,2.7-7.1,0-9.7c-2.7-2.7-7.1-2.7-9.8,0c-2.7,2.7-2.7,7.1,0,9.7C-83.3,476.7-78.9,476.7-76.3,474 M-82.9,360.4
					c1.6-1.6,2.1-3.8,1.8-5.9c-4.6,0-9.1,0.1-13.5,0.4c-0.2,2,0.4,4,1.9,5.5C-89.9,363.1-85.5,363-82.9,360.4 M-78.5,436.1
					c2.7-2.7,2.7-7.1,0-9.8c-2.7-2.7-7-2.7-9.8,0c-2.7,2.7-2.7,7.1,0,9.7C-85.5,438.8-81.2,438.8-78.5,436.1 M-58.4,456.2
					c2.7-2.7,2.7-7.1,0-9.8c-2.7-2.7-7.1-2.7-9.8,0c-2.7,2.7-2.7,7,0,9.7C-65.5,458.8-61.1,458.8-58.4,456.2 M-192.3,429.5
					c2.7-2.7,2.7-7.1,0-9.8c-2.7-2.7-7-2.7-9.8,0c-2.7,2.7-2.7,7.1,0,9.8C-199.3,432.2-194.9,432.2-192.3,429.5 M-62.8,380.4
					c2.7-2.7,2.7-7.1,0-9.8c-2.7-2.7-7.1-2.7-9.8,0c-2.7,2.7-2.7,7.1,0,9.8C-69.9,383.1-65.5,383.1-62.8,380.4 M-60.6,418.3
					c2.7-2.7,2.7-7,0-9.8c-2.7-2.7-7.1-2.7-9.8,0c-2.7,2.7-2.7,7.1,0,9.8C-67.7,421-63.3,421-60.6,418.3 M-96.3,454
					c2.7-2.7,2.7-7.1,0-9.7c-2.7-2.7-7.1-2.7-9.8,0c-2.7,2.7-2.7,7.1,0,9.8C-103.4,456.6-99,456.6-96.3,454 M227.2,491.6
					c2.7-2.7,2.7-7.1,0-9.8c-2.7-2.7-7.1-2.7-9.8,0c-2.7,2.7-2.7,7,0,9.8C220.1,494.2,224.5,494.2,227.2,491.6 M229.4,519.7
					c-2.7-2.7-7.1-2.7-9.8,0c-2.7,2.7-2.7,7.1,0,9.7c2.7,2.7,7.1,2.7,9.8,0C232.1,526.7,232.1,522.4,229.4,519.7 M211.5,537.5
					c-2.7-2.7-7.1-2.7-9.8,0c-2.7,2.7-2.7,7,0,9.7c2.7,2.7,7.1,2.7,9.8,0C214.2,544.6,214.2,540.2,211.5,537.5 M215.2,443.9
					c-2.7,2.7-2.7,7.1,0,9.8c2.7,2.7,7.1,2.7,9.8,0c2.7-2.7,2.7-7.1,0-9.8C222.3,441.2,217.9,441.2,215.2,443.9 M233.1,426.1
					c-2.7,2.7-2.7,7.1,0,9.8c2.7,2.7,7.1,2.7,9.8,0c2.7-2.7,2.7-7.1,0-9.8C240.2,423.4,235.8,423.4,233.1,426.1 M193.7,555.4
					c-2.7-2.7-7.1-2.7-9.8,0c-0.3,0.3-0.4,0.6-0.6,1c3.9,0.3,7.7,0.6,11.6,0.9C194.5,556.5,194.2,555.9,193.7,555.4 M249.5,539.7
					c-2.7-2.7-7.1-2.7-9.8,0c-2.7,2.7-2.7,7.1,0,9.8c2.7,2.7,7.1,2.7,9.8,0C252.2,546.8,252.1,542.4,249.5,539.7 M237.5,501.8
					c-2.7,2.7-2.7,7,0,9.7c2.7,2.7,7.1,2.7,9.8,0c2.7-2.7,2.7-7.1,0-9.7C244.6,499.1,240.2,499.1,237.5,501.8 M235.3,464
					c-2.7,2.7-2.7,7.1,0,9.7c2.7,2.7,7.1,2.7,9.8,0c2.7-2.7,2.7-7.1,0-9.7C242.4,461.3,238,461.3,235.3,464 M-261.5,529
					c-1.1-1.1-2.5-1.6-4-1.9c-1,5-1.9,9.5-2.5,13.3c2.3,0.6,4.7,0.1,6.5-1.7C-258.8,536.1-258.8,531.7-261.5,529 M181.7,517.5
					c-2.7,2.7-2.7,7.1,0,9.8c2.7,2.7,7.1,2.7,9.8,0c2.7-2.7,2.7-7,0-9.8C188.8,514.8,184.4,514.8,181.7,517.5 M195.2,423.9
					c-2.7,2.7-2.7,7.1,0,9.8c2.7,2.7,7.1,2.7,9.8,0c2.7-2.7,2.7-7.1,0-9.8C202.2,421.2,197.9,421.2,195.2,423.9 M177.3,441.7
					c-2.7,2.7-2.7,7.1,0,9.8c2.7,2.7,7.1,2.7,9.8,0c2.7-2.7,2.7-7.1,0-9.8C184.4,439,180,439,177.3,441.7 M179.5,479.6
					c-2.7,2.7-2.7,7.1,0,9.8c2.7,2.7,7.1,2.7,9.8,0c2.7-2.7,2.7-7.1,0-9.8C186.6,476.9,182.2,476.9,179.5,479.6 M197.4,461.7
					c-2.7,2.7-2.7,7.1,0,9.8c2.7,2.7,7.1,2.7,9.8,0c2.7-2.7,2.7-7,0-9.8C204.4,459.1,200.1,459.1,197.4,461.7 M148.4,551.6
					c2.2,0.4,4.4,0.8,6.7,1.1C153.2,551.2,150.7,550.8,148.4,551.6 M173.6,535.3c-2.7-2.7-7.1-2.7-9.8,0c-2.7,2.7-2.7,7,0,9.7
					c2.7,2.7,7.1,2.7,9.8,0C176.3,542.4,176.3,538,173.6,535.3 M276.5,389c-2.9,2.6-6.1,5.2-9.5,7.5c0.2,1.3,0.8,2.6,1.8,3.6
					c2.7,2.7,7.1,2.7,9.8,0c2.7-2.7,2.7-7.1,0-9.8C278,389.8,277.3,389.4,276.5,389 M199.6,499.6c-2.7,2.7-2.7,7.1,0,9.8
					c2.7,2.7,7.1,2.7,9.8,0c2.7-2.7,2.7-7.1,0-9.8C206.6,496.9,202.3,496.9,199.6,499.6 M222.8,415.8c0.1-0.1,0.2-0.3,0.2-0.4
					c-2.6,0.6-5.2,1.2-8,1.7C217.6,418.3,220.7,417.9,222.8,415.8 M-156.5,393.9c2.7-2.7,2.7-7,0-9.7c-2.7-2.7-7.1-2.7-9.8,0
					c-2.7,2.7-2.7,7.1,0,9.7C-163.6,396.6-159.2,396.5-156.5,393.9 M-22.7,420.5c2.7-2.7,2.7-7.1,0-9.8c-2.7-2.7-7.1-2.7-9.8,0
					c-2.7,2.7-2.7,7.1,0,9.7C-29.7,423.2-25.3,423.2-22.7,420.5 M-24.9,382.6c2.7-2.7,2.7-7.1,0-9.8c-2.7-2.7-7.1-2.7-9.8,0
					c-2.7,2.7-2.7,7.1,0,9.8C-31.9,385.3-27.5,385.3-24.9,382.6 M-42.7,400.4c2.7-2.7,2.7-7.1,0-9.8c-2.7-2.7-7.1-2.7-9.8,0
					c-2.7,2.7-2.7,7.1,0,9.7C-49.8,403.1-45.4,403.1-42.7,400.4 M-100.7,378.2c2.7-2.7,2.7-7.1,0-9.8c-2.7-2.7-7.1-2.7-9.8,0
					c-2.7,2.7-2.7,7.1,0,9.8C-107.8,380.9-103.4,380.9-100.7,378.2 M-38.3,466.4c-2.7-2.7-7-2.7-9.8,0c-2.7,2.7-2.7,7.1,0,9.7
					c2.7,2.7,7.1,2.7,9.7,0C-35.6,473.5-35.6,469.1-38.3,466.4 M-20.5,458.3c2.7-2.7,2.7-7.1,0-9.7c-2.7-2.7-7.1-2.7-9.8,0
					c-2.7,2.7-2.7,7.1,0,9.7C-27.5,461-23.2,461-20.5,458.3 M-18.3,486.5c-2.7-2.7-7.1-2.7-9.8,0c-2.7,2.7-2.7,7,0,9.7
					c2.7,2.7,7.1,2.7,9.7,0C-15.6,493.5-15.6,489.2-18.3,486.5 M-2.6,440.5c2.7-2.7,2.7-7.1,0-9.8c-2.7-2.7-7.1-2.7-9.8,0
					c-2.7,2.7-2.7,7.1,0,9.7C-9.7,443.2-5.3,443.2-2.6,440.5 M-10.2,468.6c-2.7,2.7-2.7,7.1,0,9.7c2.7,2.7,7.1,2.7,9.8,0
					c2.7-2.7,2.7-7.1,0-9.7C-3.1,466-7.5,465.9-10.2,468.6 M-4.8,402.6c2.7-2.7,2.7-7.1,0-9.7c-2.7-2.7-7.1-2.7-9.8,0
					c-2.7,2.7-2.7,7,0,9.7C-11.9,405.3-7.5,405.3-4.8,402.6 M77.7,510.9c-2.7-2.7-7.1-2.7-9.8,0c-2.7,2.7-2.7,7.1,0,9.7
					c2.7,2.7,7.1,2.7,9.8,0C80.4,517.9,80.4,513.6,77.7,510.9 M57.6,490.9c-2.7-2.7-7.1-2.7-9.8,0c-2.7,2.7-2.7,7.1,0,9.8
					c2.7,2.7,7.1,2.7,9.8,0C60.3,497.9,60.3,493.5,57.6,490.9 M61.3,397.3c-2.7,2.7-2.7,7.1,0,9.8c2.7,2.7,7.1,2.7,9.8,0
					c2.7-2.7,2.7-7.1,0-9.7C68.4,394.6,64,394.6,61.3,397.3 M43.4,415.1c-2.7,2.7-2.7,7.1,0,9.7c2.7,2.7,7.1,2.7,9.8,0
					c2.7-2.7,2.7-7.1,0-9.8C50.5,412.4,46.1,412.4,43.4,415.1 M63.5,435.1c-2.7,2.7-2.7,7,0,9.8c2.7,2.7,7,2.7,9.7,0
					c2.7-2.7,2.7-7.1,0-9.8C70.6,432.5,66.2,432.5,63.5,435.1 M55.4,462.7c2.7-2.7,2.7-7.1,0-9.8c-2.7-2.7-7.1-2.7-9.8,0
					c-2.7,2.7-2.7,7.1,0,9.8C48.3,465.4,52.7,465.4,55.4,462.7 M81.4,417.3c-2.7,2.7-2.7,7.1,0,9.8c2.7,2.7,7.1,2.7,9.8,0
					c2.7-2.7,2.7-7.1,0-9.8C88.4,414.6,84.1,414.6,81.4,417.3 M83.6,455.2c-2.7,2.7-2.7,7,0,9.7c2.7,2.7,7.1,2.7,9.8,0
					c2.7-2.7,2.7-7.1,0-9.8C90.6,452.5,86.3,452.5,83.6,455.2 M41.2,387c2.7,2.7,7.1,2.7,9.8,0c0.2-0.2,0.3-0.5,0.5-0.8
					c-4-1.6-8.1-3.3-12.1-4.9C39.1,383.3,39.7,385.4,41.2,387 M3.3,375c-2.7,2.7-2.7,7.1,0,9.7c2.7,2.7,7.1,2.7,9.8,0
					c2.7-2.7,2.7-7.1,0-9.8C10.4,372.4,6,372.3,3.3,375 M75.5,482.8c2.7-2.7,2.7-7.1,0-9.8c-2.7-2.7-7.1-2.7-9.8,0
					c-2.7,2.7-2.7,7.1,0,9.7C68.4,485.5,72.8,485.5,75.5,482.8 M-40.5,438.3c2.7-2.7,2.7-7,0-9.8c-2.7-2.7-7.1-2.7-9.8,0
					c-2.7,2.7-2.7,7.1,0,9.8C-47.6,441-43.2,441-40.5,438.3 M15.3,422.7c2.7-2.7,2.7-7.1,0-9.8c-2.7-2.7-7.1-2.7-9.8,0
					c-2.7,2.7-2.7,7.1,0,9.7C8.2,425.4,12.6,425.4,15.3,422.7 M-121.2,358.4c-2.1,0.4-4.2,0.9-6.3,1.4
					C-125.3,360.4-123,360-121.2,358.4 M-138.7,376c2.7-2.7,2.7-7,0-9.7c-1.2-1.2-2.7-1.8-4.2-1.9c-1.9,0.7-3.8,1.4-5.6,2.1
					c-2.6,2.7-2.5,6.9,0.1,9.6C-145.7,378.7-141.3,378.7-138.7,376 M-118.6,396.1c2.7-2.7,2.7-7.1,0-9.8c-2.7-2.7-7.1-2.7-9.8,0
					c-2.7,2.7-2.7,7,0,9.7C-125.6,398.7-121.3,398.7-118.6,396.1 M-116.4,433.9c2.7-2.7,2.7-7.1,0-9.7c-2.7-2.7-7.1-2.7-9.8,0
					c-2.7,2.7-2.7,7.1,0,9.8C-123.5,436.6-119.1,436.6-116.4,433.9 M-123.9,462c-2.7,2.7-2.7,7.1,0,9.8c2.7,2.7,7.1,2.7,9.8,0
					c2.7-2.7,2.7-7.1,0-9.8C-116.9,459.4-121.3,459.4-123.9,462 M-154.3,431.7c2.7-2.7,2.7-7.1,0-9.7c-2.7-2.7-7.1-2.7-9.8,0
					c-2.7,2.7-2.7,7.1,0,9.7C-161.4,434.4-157,434.4-154.3,431.7 M-141.6,479.8c2.6-0.4,5.2-0.7,7.9-1
					C-136.3,477.4-139.4,477.7-141.6,479.8 M-136.5,413.9c2.7-2.7,2.7-7,0-9.7c-2.7-2.7-7.1-2.7-9.8,0c-2.7,2.7-2.7,7.1,0,9.7
					C-143.5,416.6-139.1,416.6-136.5,413.9 M-253.4,520.9c2.7,2.7,7.1,2.7,9.8,0c2.7-2.7,2.7-7.1,0-9.8c-2.7-2.7-7.1-2.7-9.8,0
					C-256.1,513.9-256.1,518.3-253.4,520.9 M-161.9,459.9c-2.7,2.7-2.7,7.1,0,9.8c2.7,2.7,7.1,2.7,9.8,0c2.7-2.7,2.7-7.1,0-9.8
					C-154.8,457.2-159.2,457.2-161.9,459.9 M23.4,395.1c-2.7,2.7-2.7,7.1,0,9.8c2.7,2.7,7,2.7,9.7,0c2.7-2.7,2.7-7.1,0-9.7
					C30.4,392.4,26.1,392.4,23.4,395.1 M-134.3,451.8c2.7-2.7,2.7-7.1,0-9.7c-2.7-2.7-7.1-2.7-9.8,0c-2.7,2.7-2.7,7.1,0,9.7
					C-141.3,454.4-137,454.5-134.3,451.8 M9.9,488.7c-2.7,2.7-2.7,7.1,0,9.7c2.7,2.7,7.1,2.7,9.8,0c2.7-2.7,2.7-7.1,0-9.7
					C17,486,12.6,486,9.9,488.7 M27.8,470.8c-2.7,2.7-2.7,7.1,0,9.8c2.7,2.7,7.1,2.7,9.7,0c2.7-2.7,2.7-7.1,0-9.8
					C34.8,468.1,30.5,468.1,27.8,470.8 M17.5,460.6c2.7-2.7,2.7-7.1,0-9.8c-2.7-2.7-7.1-2.7-9.8,0c-2.7,2.7-2.7,7.1,0,9.8
					C10.4,463.2,14.8,463.2,17.5,460.6 M35.3,442.7c2.7-2.7,2.7-7.1,0-9.8c-2.7-2.7-7.1-2.7-9.8,0c-2.7,2.7-2.7,7.1,0,9.7
					C28.3,445.4,32.6,445.4,35.3,442.7 M-174.4,411.7c2.7-2.7,2.7-7,0-9.7c-2.7-2.7-7.1-2.7-9.8,0c-2.7,2.7-2.7,7.1,0,9.7
					C-181.5,414.4-177.1,414.4-174.4,411.7 M-7.6,365.1c-3.5-1-7.1-1.9-10.7-2.8c0.3,0.9,0.8,1.7,1.5,2.4
					C-14.2,367.3-10.3,367.3-7.6,365.1 M-172.2,449.6c2.7-2.7,2.7-7.1,0-9.8c-2.7-2.7-7.1-2.7-9.8,0c-2.7,2.7-2.7,7.1,0,9.8
					C-179.2,452.3-174.9,452.3-172.2,449.6 M-54.7,362.6c2.7,2.7,7.1,2.7,9.8,0c1.4-1.4,2.1-3.3,2-5.1c-4.4-0.7-8.9-1.2-13.4-1.7
					C-57,358.1-56.5,360.7-54.7,362.6 M39.7,508.7c-2.7-2.7-7.1-2.7-9.8,0c-2.7,2.7-2.7,7.1,0,9.8c0.1,0.1,0.2,0.1,0.3,0.2
					c1.7,0.6,3.3,1.2,5,1.7c1.6-0.1,3.2-0.7,4.5-1.9C42.4,515.8,42.4,511.4,39.7,508.7 M331.5,177.3c2.7,2.7,7,2.7,9.7,0.1
					c-3.8-1.3-7.6-2.4-11.4-3.3C330.1,175.2,330.6,176.3,331.5,177.3 M293.6,175.1c2.7,2.7,7.1,2.7,9.8,0c1.3-1.3,1.9-2.9,2-4.5
					c-4.6-0.2-9.1-0.1-13.6,0.3C291.9,172.4,292.4,173.9,293.6,175.1 M353.8,225.4c-2.7,2.7-2.7,7.1,0,9.7c2.7,2.7,7.1,2.7,9.8,0
					c2.7-2.7,2.7-7,0-9.8C360.9,222.8,356.5,222.7,353.8,225.4 M313.7,195.1c2.7,2.7,7,2.7,9.7,0c2.7-2.7,2.7-7.1,0-9.7
					c-2.7-2.7-7.1-2.7-9.8,0C311,188,311,192.4,313.7,195.1 M306.7,277.3c0.6,4.2,1,8.4,1.3,12.7c0.7-0.3,1.3-0.7,1.9-1.2
					c2.7-2.7,2.7-7.1,0-9.8C309,278,307.9,277.5,306.7,277.3 M315.8,223.2c-2.7,2.7-2.7,7.1,0,9.7c2.7,2.7,7.1,2.7,9.8,0
					c2.7-2.7,2.7-7,0-9.8C322.9,220.6,318.5,220.6,315.8,223.2 M279,181.5c1.4,3.5,3.1,7.7,5,12.4c0.5-0.3,1.1-0.5,1.5-1
					c2.7-2.7,2.7-7.1,0-9.8C283.7,181.4,281.3,180.9,279,181.5 M318,261.1c-2.7,2.7-2.7,7.1,0,9.7c2.7,2.7,7,2.7,9.8,0
					c2.7-2.7,2.7-7.1,0-9.7C325.1,258.4,320.7,258.4,318,261.1 M320.2,299c-2.7,2.7-2.7,7,0,9.7c2.7,2.7,7.1,2.7,9.8,0
					c2.7-2.7,2.7-7.1,0-9.8C327.3,296.3,322.9,296.3,320.2,299 M333.7,205.4c-2.7,2.7-2.7,7.1,0,9.7c2.7,2.7,7.1,2.7,9.8,0
					c2.7-2.7,2.7-7.1,0-9.7C340.8,202.7,336.4,202.7,333.7,205.4 M334.4,384.5c2.7-2.7,2.7-7.1,0-9.8c-2.7-2.7-7.1-2.7-9.8,0
					c-2.7,2.7-2.7,7.1,0,9.7C327.3,387.2,331.7,387.2,334.4,384.5 M336.6,422.4c2.7-2.7,2.7-7.1,0-9.8c-2.7-2.7-7.1-2.7-9.8,0
					c-2.7,2.7-2.7,7,0,9.7C329.5,425.1,333.9,425.1,336.6,422.4 M342.5,356.9c-2.7,2.7-2.7,7.1,0,9.8c2.7,2.7,7.1,2.7,9.8,0
					c2.7-2.7,2.7-7.1,0-9.8C349.6,354.2,345.2,354.2,342.5,356.9 M341,488.4c-2.7-2.7-7.1-2.7-9.8,0c-2.7,2.7-2.7,7,0,9.7
					c2.7,2.7,7.1,2.7,9.8,0C343.7,495.4,343.7,491.1,341,488.4 M340.3,319c-2.7,2.7-2.7,7.1,0,9.7c2.7,2.7,7.1,2.7,9.8,0
					c2.7-2.7,2.7-7.1,0-9.8C347.4,316.3,343,316.3,340.3,319 M314.3,364.5c2.7-2.7,2.7-7.1,0-9.8c-2.7-2.7-7.1-2.7-9.8,0
					c-2.7,2.7-2.7,7.1,0,9.7C307.2,367.1,311.6,367.1,314.3,364.5 M318.7,440.2c2.7-2.7,2.7-7.1,0-9.8c-2.7-2.7-7.1-2.7-9.8,0
					c-2.7,2.7-2.7,7,0,9.8C311.6,442.9,316,442.9,318.7,440.2 M316.5,402.4c2.7-2.7,2.7-7.1,0-9.8c-2.7-2.7-7.1-2.7-9.8,0
					c-2.7,2.7-2.7,7,0,9.7C309.5,405,313.8,405,316.5,402.4 M280.8,438c2.7-2.7,2.7-7.1,0-9.7c-2.7-2.7-7.1-2.7-9.8,0
					c-2.7,2.7-2.7,7.1,0,9.8C273.7,440.7,278.1,440.7,280.8,438 M300.9,458.1c2.7-2.7,2.7-7.1,0-9.8c-2.7-2.7-7-2.7-9.8,0
					c-2.7,2.7-2.7,7.1,0,9.8C293.8,460.7,298.2,460.8,300.9,458.1 M298.7,420.2c2.7-2.7,2.7-7.1,0-9.8c-2.7-2.7-7.1-2.7-9.8,0
					c-2.7,2.7-2.7,7.1,0,9.7C291.6,422.9,296,422.9,298.7,420.2 M285.2,513.8c2.7-2.7,2.7-7.1,0-9.8c-2.7-2.7-7.1-2.7-9.8,0
					c-2.7,2.7-2.7,7.1,0,9.8C278.1,516.5,282.5,516.5,285.2,513.8 M293.3,486.2c-2.7,2.7-2.7,7.1,0,9.8c2.7,2.7,7.1,2.7,9.8,0
					c2.7-2.7,2.7-7.1,0-9.8C300.4,483.5,296,483.5,293.3,486.2 M338.8,460.3c2.7-2.7,2.7-7.1,0-9.8c-2.7-2.7-7.1-2.7-9.8,0
					c-2.7,2.7-2.7,7.1,0,9.8C331.7,462.9,336.1,462.9,338.8,460.3 M323.1,506.2c-2.7-2.7-7.1-2.7-9.8,0c-2.7,2.7-2.7,7.1,0,9.7
					c2.7,2.7,7.1,2.7,9.8,0C325.8,513.3,325.8,508.9,323.1,506.2 M311.2,468.3c-2.7,2.7-2.7,7.1,0,9.8c2.7,2.7,7.1,2.7,9.8,0
					c2.7-2.7,2.7-7.1,0-9.8C318.2,465.6,313.8,465.6,311.2,468.3 M305.3,524.1c-2.7-2.7-7.1-2.7-9.8,0c-2.7,2.7-2.7,7.1,0,9.8
					c2.7,2.7,7.1,2.7,9.8,0C308,531.1,307.9,526.7,305.3,524.1 M332.2,346.6c2.7-2.7,2.7-7.1,0-9.7c-2.7-2.7-7.1-2.7-9.8,0
					c-2.7,2.7-2.7,7.1,0,9.8C325.1,349.3,329.5,349.3,332.2,346.6 M371.6,207.6c-2.7,2.7-2.7,7.1,0,9.8c2.7,2.7,7.1,2.7,9.8,0
					c2.7-2.7,2.7-7.1,0-9.7C378.7,204.9,374.3,204.9,371.6,207.6 M358.2,301.2c-2.7,2.7-2.7,7.1,0,9.7c2.7,2.7,7.1,2.7,9.8,0
					c2.7-2.7,2.7-7.1,0-9.8C365.3,298.5,360.9,298.5,358.2,301.2 M356,263.3c-2.7,2.7-2.7,7.1,0,9.7c2.7,2.7,7.1,2.7,9.8,0
					c2.7-2.7,2.7-7,0-9.7C363,260.6,358.7,260.6,356,263.3 M373.8,245.5c-2.7,2.7-2.7,7,0,9.8c2.7,2.7,7.1,2.7,9.8,0
					c2.7-2.7,2.7-7.1,0-9.8C380.9,242.8,376.5,242.8,373.8,245.5 M388,331c2.7-2.7,2.7-7.1,0-9.8c-2.7-2.7-7.1-2.7-9.8,0
					c-2.7,2.7-2.7,7,0,9.7C380.9,333.7,385.3,333.7,388,331 M376,283.4c-2.7,2.7-2.7,7.1,0,9.7c2.7,2.7,7.1,2.7,9.8,0
					c2.7-2.7,2.7-7.1,0-9.7C383.1,280.7,378.7,280.7,376,283.4 M267.3,521.9c-2.7-2.7-7.1-2.7-9.8,0c-2.7,2.7-2.7,7.1,0,9.8
					c2.7,2.7,7.1,2.7,9.8,0C270,528.9,270,524.5,267.3,521.9 M335.9,243.3c-2.7,2.7-2.7,7.1,0,9.7c2.7,2.7,7.1,2.7,9.8,0
					c2.7-2.7,2.7-7.1,0-9.7C343,240.6,338.6,240.6,335.9,243.3 M338.1,281.2c-2.7,2.7-2.7,7,0,9.7c2.7,2.7,7.1,2.7,9.7,0
					c2.7-2.7,2.7-7.1,0-9.8C345.2,278.5,340.8,278.5,338.1,281.2 M351.6,187.6c-2.7,2.7-2.7,7.1,0,9.7c2.7,2.7,7.1,2.7,9.8,0
					c2.7-2.7,2.7-7,0-9.7C358.6,184.9,354.3,184.9,351.6,187.6 M391.7,227.6c-2.7,2.7-2.7,7.1,0,9.7c2.7,2.7,7.1,2.7,9.8,0
					c2.7-2.7,2.7-7.1,0-9.7C398.8,224.9,394.4,224.9,391.7,227.6 M221.8,557.5C221.8,557.6,221.8,557.6,221.8,557.5
					c3-0.1,6.1-0.2,9.2-0.4C228.3,555,224.3,555,221.8,557.5 M431.8,267.7c-2.7,2.7-2.7,7.1,0,9.7c2.1,2.1,5.1,2.5,7.6,1.4
					c-1.5-4.3-3.1-8.6-4.9-12.7C433.6,266.4,432.6,266.9,431.8,267.7 M351.3,508.4c-1.9,2-2.4,4.8-1.6,7.2c3.4-2.5,6.8-5.2,10.2-8
					C357.2,505.9,353.6,506.1,351.3,508.4 M333.2,526.6c1.2-0.7,2.3-1.4,3.5-2.1c-1.2,0.3-2.3,0.8-3.2,1.7
					C333.3,526.4,333.3,526.5,333.2,526.6 M287.4,541.9c-2.7-2.7-7.1-2.7-9.8,0c-2.3,2.2-2.5,5.6-1,8.2c4.3-1.1,8.5-2.3,12.7-3.7
					C289.3,544.8,288.7,543.2,287.4,541.9 M283,475.9c2.7-2.7,2.7-7.1,0-9.7c-2.7-2.7-7.1-2.7-9.8,0c-2.7,2.7-2.7,7.1,0,9.7
					C275.9,478.6,280.3,478.6,283,475.9"/>
			</g>
		</g>
		<g id="Backgrounds_x2F_Vector_x2F_Leaf03_1_" transform="translate(1752.000000, 482.000000)">
			<g id="Page-1_5_">
				<path id="Fill-1_5_" class="st6" d="M-233.2,415.4c-38.9,33.3-82.7,74.9-119.3,121.5l139.6-138.6
					C-219.8,404-226.5,409.7-233.2,415.4"/>
				<path id="Fill-3_1_" class="st6" d="M-45.8,465.4l109-108.9c8.9-11.9,17.1-24.2,24.7-36.9l-206.7,206.6
					C-94.4,505.5-69.3,485.2-45.8,465.4"/>
				<path id="Fill-5_1_" class="st6" d="M-426,738.1l558.9-557.7c0.3-4.2,0.4-8.5,0.5-12.8l-561.2,560
					C-427.2,731.1-426.7,734.6-426,738.1"/>
				<path id="Fill-7_1_" class="st6" d="M-421.4,755.1L130.8,204c0.7-4.6,1.3-9.3,1.7-14l-556.7,555.6
					C-423.3,748.8-422.4,752-421.4,755.1"/>
				<path id="Fill-9_1_" class="st6" d="M-415.2,770.3l540.7-539.5c1.3-5.2,2.5-10.5,3.5-15.7l-547.7,546.6
					C-417.6,764.5-416.5,767.4-415.2,770.3"/>
				<path id="Fill-11_1_" class="st6" d="M-399.6,798L99.5,299.6c3.9-7.5,7.4-15.2,10.7-22.9l-514.6,513.9
					C-402.9,793.1-401.3,795.6-399.6,798"/>
				<path id="Fill-13_1_" class="st6" d="M-408.2,784.6l524.1-522.8c2.2-6,4.2-12.1,6-18.2l-534.3,533
					C-411.1,779.3-409.7,782-408.2,784.6"/>
				<path id="Fill-15_1_" class="st6" d="M131.4,126.5L-427,684.1c-0.7,4.6-1.3,9.2-1.6,13.8l561.2-560.3
					C132.2,133.9,131.8,130.2,131.4,126.5"/>
				<path id="Fill-17_1_" class="st6" d="M124.8,90.7l-529.7,529.1c-3.4,7.2-6.6,14.4-9.4,21.7l541.5-540.9
					C126.5,97.3,125.7,94,124.8,90.7"/>
				<path id="Fill-19_1_" class="st6" d="M119.8,74.6l-235.9,235.5c-10.4,11.4-21.5,22.3-32.9,32.8l-227.6,227.2
					c-6.8,10.2-13.2,20.6-19,31.2L122.7,84C121.8,80.9,120.8,77.7,119.8,74.6"/>
				<path id="Fill-21_1_" class="st6" d="M128.9,108.6l-548.2,547.1c-0.6,1.8-1.2,3.7-1.8,5.5c-1.2,3.9-2.2,7.7-3.1,11.6L130.8,119
					C130.2,115.5,129.6,112.1,128.9,108.6"/>
				<g id="Group-25_1_" transform="translate(0.000000, 97.206428)">
					<g id="Clip-24_1_">
					</g>
					<defs>
						<filter id="Adobe_OpacityMaskFilter_4_" filterUnits="userSpaceOnUse" x="-428.6" y="49.5" width="562.5" height="573.1">
							<feColorMatrix  type="matrix" values="1 0 0 0 0  0 1 0 0 0  0 0 1 0 0  0 0 0 1 0"/>
						</filter>
					</defs>
					<mask maskUnits="userSpaceOnUse" x="-428.6" y="49.5" width="562.5" height="573.1" id="mask-12_1_">
						<g class="st11">
							<polygon id="path-11_1_" class="st2" points="-428.6,49.5 133.9,49.5 133.9,622.6 -428.6,622.6 							"/>
						</g>
					</mask>
					<path id="Fill-23_1_" class="st12" d="M133.4,49.5l-562,561.3c0,4,0.1,7.9,0.4,11.8l562-561.3
						C133.8,57.4,133.7,53.4,133.4,49.5"/>
				</g>
			</g>
		</g>
	</g>
</g>
<g id="Clip-2_1_">
</g>
<g class="st0">
	<path class="st13" d="M748.5,810l-329.9,257.8c-0.3,2.7-0.5,5.5-0.6,8.2l341.9-267.2C756.1,809.1,752.3,809.5,748.5,810z"/>
	<path class="st13" d="M846.7,794.7l-425.2,332.2c0.4,2.2,0.9,4.4,1.4,6.6l441.3-344.8C858.4,791,852.5,793,846.7,794.7z"/>
	<path class="st13" d="M700.2,817l-274.6,214.6c-1,3.3-1.8,6.5-2.6,9.7l290-226.6C708.8,815.4,704.5,816.1,700.2,817z"/>
	<path class="st13" d="M725.2,812.8l-304.1,237.6c-0.6,3-1.1,5.9-1.5,8.9l317.4-248C733.1,811.8,729.2,812.3,725.2,812.8z"/>
	<path class="st13" d="M818.6,801.3l-399.2,311.9c0.3,2.3,0.6,4.6,1,6.9l411.6-321.6C827.5,799.6,823,800.5,818.6,801.3z"/>
	<path class="st13" d="M672.4,823.4l-239.1,186.8c-1.6,3.7-3,7.4-4.3,11.1l257.9-201.5C682.1,820.9,677.2,822.1,672.4,823.4z"/>
	<path class="st13" d="M794.2,805L418,1098.9c0.1,2.4,0.3,4.9,0.6,7.3l387.5-302.8C802.1,804,798.2,804.5,794.2,805z"/>
	<path class="st13" d="M1019.1,637l8.3-6.5c-1.1-1.9-2.2-3.7-3.2-5.2l-4.2,3.3C1019.9,631,1019.7,633.8,1019.1,637z"/>
	<path class="st13" d="M1020.9,620.2c-1.7-2.5-2.8-3.8-2.8-3.8s0.8,1.6,1.4,4.9L1020.9,620.2z"/>
	<path class="st13" d="M1030.4,635.8l-14,10.9c-1.2,3.5-2.7,7.3-4.7,11.4l21.6-16.9C1032.3,639.3,1031.4,637.5,1030.4,635.8z"/>
	<path class="st13" d="M1041.2,658.1l-73.5,57.4c-12.4,12.2-27.5,25.6-46.2,40.2c-11.3,8.8-22.4,16-33.3,21.9l-463.7,362.3
		c0.5,2.2,1.1,4.3,1.7,6.3L1043.5,664C1042.7,662,1042,660,1041.2,658.1z"/>
	<path class="st13" d="M590.8,856.4l-120.1,93.8c-5.4,6.4-10.4,12.9-14.8,19.3l162-126.6C609.1,846.9,600.1,851.3,590.8,856.4z"/>
	<path class="st13" d="M638.8,834.2L446,984.9c-2.6,4.5-5,8.9-7.2,13.3L656.6,828C650.7,829.9,644.8,832,638.8,834.2z"/>
	<path class="st13" d="M520,903.3c-5.3,4.1-10.2,8.2-15,12.4l34.6-27C533.2,893.3,526.7,898.2,520,903.3z"/>
	<path class="st13" d="M1036.1,646.7l-32,25c-3.4,5.4-7.6,11.3-12.6,17.5l47.2-36.9C1037.8,650.4,1036.9,648.5,1036.1,646.7z"/>
	<path class="st13" d="M771.2,807.6l-353.6,276.2c0,2.6,0,5.1,0,7.7l364.9-285.1C778.8,806.8,775,807.2,771.2,807.6z"/>
	<path class="st13" d="M802.3,990.7l245.2-191.5c1.2-3.4,2.2-6.8,3.1-10.1L789.5,993C793.7,992.3,798,991.5,802.3,990.7z"/>
	<path class="st13" d="M829.4,984.8l208.8-163.1c1.9-3.9,3.6-7.8,5.2-11.7l-227.9,178C820.1,987.1,824.8,986,829.4,984.8z"/>
	<path class="st13" d="M861.6,975.1l160.9-125.7c3.3-4.9,6.3-9.9,9-14.7L844.5,980.7C850.2,979,855.9,977.2,861.6,975.1z"/>
	<path class="st13" d="M911.1,951.7l76.2-59.5c8.3-8.4,15.7-16.8,22.3-25.1L882,966.8C891.5,962.6,901.2,957.6,911.1,951.7z"/>
	<path class="st13" d="M712.6,1007c4.6-1.1,9.2-2.1,13.7-3l331.1-258.7c0.1-2.6,0.2-5.2,0.2-7.8L712.6,1007z"/>
	<path class="st13" d="M777,995.1l276-215.6c0.7-3.1,1.3-6.1,1.8-9.1L764.6,997.1C768.7,996.5,772.9,995.8,777,995.1z"/>
	<path class="st13" d="M1057,722.6l-374.6,292.7c5.3-1.7,10.6-3.2,15.7-4.6l359.3-280.7C1057.3,727.4,1057.2,725,1057,722.6z"/>
	<path class="st13" d="M752.1,999.2l304-237.5c0.3-2.8,0.6-5.6,0.9-8.4l-317.6,248.1C743.6,1000.7,747.9,999.9,752.1,999.2z"/>
	<path class="st13" d="M1049.6,682.2l-617.4,482.4c0.8,2,1.5,4,2.3,5.9l616.8-481.9C1050.8,686.4,1050.2,684.3,1049.6,682.2z"/>
	<path class="st13" d="M457.5,1214l0.8-0.6c0.2-1.7,0.6-4.7,1.6-8.9l-5.7,4.5C455.7,1211.3,456.9,1213,457.5,1214z"/>
	<path class="st13" d="M450.9,1203.7l11.8-9.2c1.1-3.3,2.6-7,4.3-11.1l-19.2,15C449,1200.4,450,1202.1,450.9,1203.7z"/>
	<path class="st13" d="M1045.7,669.9l-617.6,482.6c0.7,2.1,1.3,4.1,2,6.1L1047.7,676C1047.1,674,1046.4,671.9,1045.7,669.9z"/>
	<path class="st13" d="M445,1193.1l28.3-22.1c2.5-4.6,5.5-9.5,8.9-14.7l-40,31.3C443.1,1189.5,444.1,1191.3,445,1193.1z"/>
	<path class="st13" d="M1052.9,695.1L571.7,1071c16.2-11.3,31.6-20.6,46.3-28.5l436.2-340.8C1053.8,699.5,1053.3,697.2,1052.9,695.1
		z"/>
	<path class="st13" d="M439.5,1182l56.3-44c8.2-9.9,18.2-20.5,30.4-31.4l-89.3,69.7C437.8,1178.2,438.6,1180.1,439.5,1182z"/>
	<path class="st13" d="M1055.4,708.5l-411.1,321.2c7-3.1,13.8-5.9,20.5-8.3l391.5-305.9C1056,713.1,1055.7,710.8,1055.4,708.5z"/>
</g>
</svg>
