<?xml version="1.0" standalone="no"?>
<!DOCTYPE svg PUBLIC "-//W3C//DTD SVG 20010904//EN"
 "http://www.w3.org/TR/2001/REC-SVG-20010904/DTD/svg10.dtd">
<svg version="1.0" xmlns="http://www.w3.org/2000/svg"
 width="260.000000pt" height="260.000000pt" viewBox="0 0 260.000000 260.000000"
 preserveAspectRatio="xMidYMid meet">
<metadata>
Created by potrace 1.11, written by Peter Selinger 2001-2013
</metadata>
<g transform="translate(0.000000,260.000000) scale(0.100000,-0.100000)"
fill="#000000" stroke="none">
<path d="M1748 2361 c-25 -16 -65 -56 -89 -88 -70 -94 -91 -99 -104 -23 -14
83 -71 90 -119 15 -37 -59 -44 -121 -21 -183 28 -76 60 -112 99 -112 45 0 62
24 70 94 8 74 36 123 58 100 4 -3 1 -20 -7 -37 -22 -55 1 -73 52 -40 50 33
120 61 133 53 23 -14 4 -34 -48 -53 -49 -17 -66 -35 -56 -59 7 -19 74 -64 116
-77 38 -12 55 -27 44 -38 -11 -11 -112 30 -155 63 -24 19 -52 34 -61 34 -49 0
-126 -133 -117 -202 10 -77 77 -120 262 -168 64 -17 119 -31 123 -31 36 -6 37
21 2 105 -13 32 -20 65 -16 78 5 21 12 23 75 25 129 3 144 38 55 122 -30 29
-54 57 -51 64 2 7 32 26 68 43 35 18 74 42 86 55 27 29 83 158 76 175 -11 30
-139 34 -216 7 -26 -9 -68 -34 -94 -55 -54 -45 -79 -46 -76 -3 7 121 -1 165
-30 165 -7 0 -34 -13 -59 -29z"/>
<path d="M1011 2104 c-113 -19 -203 -93 -226 -185 l-6 -26 68 34 c55 27 80 34
128 34 96 0 146 -19 184 -66 77 -99 47 -235 -104 -464 -38 -57 -82 -136 -99
-175 -26 -61 -30 -84 -31 -161 0 -75 4 -97 22 -132 36 -67 113 -113 188 -113
l32 0 -20 58 c-26 78 -26 180 1 256 20 56 44 99 148 261 108 170 140 276 120
400 -31 198 -199 314 -405 279z"/>
<path d="M512 2025 c-73 -61 -36 -170 61 -181 79 -10 143 76 109 145 -30 63
-117 81 -170 36z"/>
<path d="M693 1793 c-55 -11 -90 -83 -63 -134 29 -53 116 -61 160 -14 42 45
25 116 -35 141 -19 8 -36 13 -37 13 -2 -1 -13 -4 -25 -6z"/>
<path d="M440 1783 c-79 -29 -58 -143 27 -143 69 0 104 77 56 124 -25 25 -51
31 -83 19z"/>
<path d="M1570 1484 c-77 -21 -155 -70 -209 -132 -137 -159 -157 -300 -77
-551 85 -266 72 -383 -58 -515 -31 -32 -56 -60 -56 -62 0 -10 81 -3 130 12 99
29 182 101 227 194 21 44 26 70 27 135 1 103 -6 149 -43 266 -54 168 -58 256
-17 337 75 148 245 194 407 111 20 -10 39 -15 43 -12 12 12 5 69 -13 109 -48
105 -201 151 -361 108z"/>
<path d="M2073 1340 c-23 -14 -33 -28 -35 -47 -2 -50 2 -68 25 -91 47 -47 136
-31 161 29 18 42 9 74 -26 104 -36 30 -81 32 -125 5z"/>
<path d="M1903 1167 c-48 -27 -57 -84 -18 -122 49 -50 135 -15 135 55 0 27
-28 69 -47 71 -5 0 -18 2 -30 3 -12 1 -30 -2 -40 -7z"/>
<path d="M2133 1102 c-13 -2 -32 -15 -43 -29 -46 -58 11 -135 87 -119 34 8 64
53 58 86 -9 46 -48 70 -102 62z"/>
<path d="M998 785 c-4 -4 4 -30 19 -58 70 -140 3 -284 -136 -292 -39 -2 -83 8
-193 46 -164 56 -224 61 -312 29 -90 -34 -158 -126 -173 -236 l-6 -48 43 37
c111 95 190 103 370 36 157 -57 203 -69 285 -70 148 -1 277 82 325 208 44 116
11 276 -66 324 -35 21 -142 38 -156 24z"/>
<path d="M1733 533 c-73 -25 -137 -106 -153 -194 l-7 -36 41 23 c84 47 201 33
343 -40 134 -68 200 -80 284 -51 88 31 145 94 156 171 l6 48 -29 -20 c-48 -33
-77 -42 -125 -39 -54 4 -89 18 -184 72 -39 21 -90 47 -115 57 -59 24 -163 28
-217 9z"/>
</g>
</svg>
