<?xml version="1.0" encoding="utf-8"?>
<!-- Generator: Adobe Illustrator 21.0.0, SVG Export Plug-In . SVG Version: 6.00 Build 0)  -->
<svg version="1.1" id="Capa_1" xmlns="http://www.w3.org/2000/svg" xmlns:xlink="http://www.w3.org/1999/xlink" x="0px" y="0px"
	 viewBox="0 0 1920 1500" style="enable-background:new 0 0 1920 1500;" xml:space="preserve">
<style type="text/css">
	.st0{fill:#EAEFD0;}
	.st1{fill:#FAD8DC;}
	.st2{fill:#E3B7C0;}
	.st3{filter:url(#Adobe_OpacityMaskFilter);}
	.st4{fill:#FFFFFF;}
	.st5{mask:url(#mask-4_1_);fill:#FAD8DC;}
	.st6{fill:#F4B1C9;}
</style>
<title>Backgrounds/Illustration/Line</title>
<path id="Fill-1" class="st0" d="M175.9,688.7c0,178.2,69.4,345.8,195.6,472.1c126.5,126.6,294.7,196.4,473.8,196.7
	c370.2,0.6,671.9-299.1,672.4-667.8v-1c0-178.6-69.6-346.5-196.1-473C1195,89,1026.6,19.1,847.4,18.9
	c-369.7-0.5-670.9,299.5-671.5,668.8V688.7z M1525.5,688.6v1c-0.6,373-305.7,676.1-680.1,675.5c-181.2-0.3-351.4-70.9-479.3-198.9
	c-127.6-127.7-197.9-297.3-197.9-477.5v-1c0.6-373.5,305.2-677,679.2-676.5c181.3,0.3,351.7,70.9,479.8,199.1
	C1455.1,338.2,1525.5,508,1525.5,688.6z"/>
<path id="Fill-3" class="st1" d="M348.6,609.2c0,46.5,18.7,94.8,55.8,144.2c70,93,174.8,155,295.1,174.6
	c111.3,18.1,222.3-4.5,296.8-60.5c83-62.4,146-150,201.6-227.2c48.2-66.9,93.7-130.1,145.6-169.2c84.2-63.3,201.3-86.2,339.2-66.4
	c-38.5-62.2-114.3-111.7-200.8-130.5c-97.3-21.2-192.5-1.7-267.8,55c-90.1,67.8-138,133.4-184.4,196.9
	c-40.7,55.7-79.1,108.3-142.3,155.8c-132.9,99.9-297.1,52.9-373-47.9C456,556.3,444.3,473.2,442,444.3
	c-21.2,15.4-76.9,62.1-90.4,132.8C349.6,587.7,348.6,598.4,348.6,609.2z M1704.3,419.8l-11.6-1.8c-139.9-22.4-258.3-0.8-342.4,62.4
	c-50.5,38-95.5,100.5-143.2,166.7c-56.1,77.9-119.7,166.2-204.1,229.7c-77,57.9-191.2,81.3-305.5,62.6
	C574.4,919.3,467,855.7,395.2,760.3c-47.8-63.5-66.3-125.9-54.9-185.4c17.7-92.5,100.4-143.9,103.9-146l8.6-5.3l0.2,10.1
	c0,1,2.3,102.5,70.7,193.4c72.6,96.4,229.6,141.3,356.9,45.7c61.8-46.5,99.7-98.4,139.9-153.4c46.8-64.1,95.3-130.5,186.8-199.3
	c78.1-58.7,176.5-78.9,277.2-57c94.4,20.6,176.6,76.7,214.4,146.5L1704.3,419.8z"/>
<path id="Fill-5" class="st2" d="M839.3,1137.5c0-24.5,3.6-50.5,12.2-77.8c7.3-23.1,16.8-48.9,26.9-76.2
	c60.5-164.4,143.2-389.5-44.1-537.1c-99.4-78.3-211.4-91.1-299.7-34.4c-64,41.1-100.1,110.9-91.4,173.6
	c48.5-19.6,176.2-68.5,262.4-19c41.9,24.1,67.7,67.9,76.5,130.4c11,77.7-14.2,138.9-40.8,203.7c-21.9,53.2-44.5,108.2-47.5,176
	c-2.3,50.5,8.1,211.1,223.7,254.2c-7.3-8-14.1-16.5-19.4-23.8C873.5,1273.4,839.3,1213,839.3,1137.5 M972.2,687.3
	c0,107.8-40.5,217.8-72.2,304.1c-9.9,27-19.3,52.6-26.5,75.2c-47.4,149.8,71.2,263.3,85.3,270.7c9.3,2.2,10,9.1,9.8,12l-0.7,10.8
	l-11.3,0c-0.9,0-1.9-0.1-2.9-0.4l-0.3,0c-49.1-5.9-293.3-47.4-282.6-284.2c3.2-71.7,26.6-128.6,49.2-183.7
	c25.4-61.8,49.4-120.2,39.3-191.7c-7.8-55-29.7-93.3-65.2-113.6c-79.5-45.7-205.8,5.6-247.2,22.4c-3.3,1.3-6,2.5-8.2,3.3l-12.2,4.7
	l-3.1-12.7c-18.5-75.3,22.1-162.3,98.7-211.5c97-62.3,219-49,326.4,35.6C941.7,501.7,972.2,593.7,972.2,687.3"/>
<defs>
	<filter id="Adobe_OpacityMaskFilter" filterUnits="userSpaceOnUse" x="1011.1" y="591.6" width="845.9" height="881.4">
		<feColorMatrix  type="matrix" values="1 0 0 0 0  0 1 0 0 0  0 0 1 0 0  0 0 0 1 0"/>
	</filter>
</defs>
<mask maskUnits="userSpaceOnUse" x="1011.1" y="591.6" width="845.9" height="881.4" id="mask-4_1_">
	<g class="st3">
		<polygon id="path-3_1_" class="st4" points="1011.1,1473 1011.1,591.6 1857,591.6 1857,1473 		"/>
	</g>
</mask>
<path id="Fill-7" class="st5" d="M1425.2,1188.4c0,15.4,11.9,37.8,32,59.1c40.7,43.1,115.9,84.2,194,58.3
	c42.4-14,85.5-68.6,124.6-157.7c49.6-113.1,75.1-242,69.2-255.1c-8.7-14.1-48.2-3.2-69.5,2.6c-5.9,1.6-10.9,3-14.5,3.7
	c-3.9,0.8-15.8,7.4-27.3,13.7c-41.8,23.2-78,41.6-97.1,31c-6.8-3.8-10.5-10.8-11-20.7c-4.6-102.5-18.7-170.9-37.8-182.8
	c-25.7-16.1-56.9,16.9-94.9,61.6c-31.5,37-61.1,56.1-79,51.1c-5.7-1.6-12.9-6.3-15-19.5c-4.6-28.2-58.3-122.2-87.1-152.3
	c-23-24-126.1-80.4-167.1-78.4c-3.6,0.2-8.4,1-10.6,3.7c-26.7,36.3-22,102.6-16.8,138.9c7.3,51.4,24.3,103.9,41.2,127.8
	c7.8,10.9,16.3,21.6,24.5,32c27.5,34.7,53.4,67.4,44.1,97.6c-2.5,8-7.3,13.9-14.3,17.4c-19.3,9.8-50.6-0.9-73.4-8.7
	c-6.2-2.1-11.5-3.9-15.5-5c-18.2-4.8-74.6-1.2-94.7,14.1c-4.5,3.4-6.6,7.2-6.6,11c0,57.2,77.4,121.9,135.7,165.5
	c52.1,39.3,74.8,58,66,90c-4,14.5-27.2,20.2-56.7,27.4c-34.7,8.5-73.9,18.3-72.8,42.1c2.2,44.5,88.1,104.3,173,104.4
	c54.8,0.1,118.3-25.9,154.4-63.2c18.8-19.4,28.4-40.1,27.6-60c-2-56.5-96.5-61.9-136.8-64.2c-4.2-0.2-7.8-0.4-10.8-0.7
	c-20.2-1.5-40.5-12.2-53-28c-8.2-10.4-11.8-21.7-10.2-31.7c1.2-7.4,5.5-10.8,8.9-12.4c14.2-6.5,39.3,7.9,44.2,10.9l0.2,0.2
	c7.7,5.2,30.7,18.1,44.5,15.4c3.5-0.7,6-2.3,7.9-5.1c10.6-15.8-5.2-39.6-27.1-72.5c-3.9-5.9-8.1-12.1-12.3-18.7
	c-39.3-63.6-35-117.4-21.8-127.2c6.3-4.7,13.5-6,20.3-3.5c13.5,4.9,24.2,24.2,31.9,57.3c11.2,49.8,37.4,69.3,56.4,70.8
	c10.9,0.9,69.1-51.8,85.5-121c1.8-7.6,3.2-14.6,4.5-20.9c5.2-25.6,9-44.2,29.8-40.8c5.1,0.8,9.3,3.6,12.2,8.2
	c8,12.7,6.1,40.1-5.8,81.7c-17.8,62.4-42.4,86.1-62.2,105.1c-12.2,11.7-22.8,21.9-29.5,38.8
	C1425.7,1182.5,1425.2,1185.3,1425.2,1188.4 M1857,900.3c0,35.2-22,125.5-50.6,202.8c-31.5,85.1-83.4,191.2-151.5,213.7
	c-83.2,27.6-162.9-15.8-206-61.3c-28-29.7-40.7-60.2-32.9-79.7c7.7-19.3,19.6-30.7,32.2-42.9c19.8-19,42.2-40.6,59.1-99.9
	c14.9-52.1,10-67.9,7.1-72.4c-1.1-1.8-2.4-2.7-4.3-3c-8.9-1.4-11.1,4.8-16.6,31.8c-1.3,6.3-2.7,13.4-4.6,21.2
	c-16.5,69.9-77.1,131.6-97.6,129.9c-8.3-0.7-50.5-7.6-66.7-79.7c-8.8-38.1-19.2-47.1-24.6-49.1c-3.1-1.1-6.3-0.5-9.4,1.9
	c-6,4.5-12.7,51.4,24.7,111.9c4.1,6.4,8.2,12.6,12.1,18.4c24.3,36.6,41.9,63,27.1,85.2c-3.6,5.3-8.7,8.7-15.3,10
	c-20.9,4.1-50.4-15.4-53-17.1c-10-6-26.9-13.1-33.3-10.2c-0.6,0.3-1.9,0.9-2.3,3.8c-1.1,6.8,1.7,14.9,7.9,22.8
	c10.5,13.3,27.6,22.3,44.8,23.6c2.9,0.2,6.5,0.4,10.5,0.7c43.5,2.5,145.3,8.3,147.7,75.3c0.8,23.1-9.9,46.8-30.8,68.4
	c-38.1,39.3-105,66.8-162.7,66.7c-85.3-0.1-181.8-60.5-184.5-115.4c-1.8-33.8,42.6-44.3,81.5-53.8c21.6-5.3,46.1-11.2,48.3-19.2
	c6.2-22.8-6.7-36.2-61.8-77.8c-60.2-45.2-140.3-112.4-140.3-174.7v-0.1c0-7.6,3.8-14.4,11.1-20c24.1-18.5,83.9-21.6,104.6-16.1
	c4.4,1.1,9.9,3,16.3,5.2c19.7,6.7,49.5,16.9,64.5,9.3c4.2-2.1,7-5.6,8.5-10.6c7.5-24.4-16.6-54.8-42.1-87
	c-8.3-10.5-16.9-21.4-24.9-32.5c-17.9-25.2-35.7-79.8-43.2-132.8c-5.4-38-10.2-107.7,19-147.4c4-5.1,10.4-7.8,19.2-8.3
	c44.5-2.2,151.3,56.1,176,81.9c28.1,29.4,84.9,125.9,90.1,158.5c1.4,8.7,5.4,9.8,6.7,10.2c10.4,2.9,35.8-10.7,67.1-47.4
	c41.7-49,76.3-84.9,109.8-63.9c29.4,18.4,39.7,114.6,43.2,192.1c0.4,8.6,3.9,10.5,5.1,11.2c15,8.4,59.4-16.3,85.9-31
	c15.9-8.8,25.2-13.9,30.6-15c3.4-0.7,8.1-2,13.7-3.5c27.5-7.6,69.1-19,82.4,2.6C1856.3,889.6,1857,894,1857,900.3"/>
<path id="Fill-10" class="st6" d="M1437.3,1211.5l0-5.8c222.6,0.3,404-180.1,404.3-402.2V803c0-222.1-180.7-403-403.1-403.3
	c-222.3-0.3-403.4,180.3-403.7,402.7v0.6c0,107.3,41.8,208.2,117.6,284.3c76,76.2,177.2,118.3,284.9,118.4L1437.3,1211.5z
	 M1853.1,803v0.6c-0.3,228.4-186.9,414-415.8,413.6c-110.8-0.2-214.8-43.4-293.1-121.8c-78-78.2-121-182.1-121-292.4v-0.6
	c0.3-228.7,186.6-414.5,415.3-414.2C1667.2,388.5,1853.1,574.5,1853.1,803z"/>
</svg>
